<?xml version="1.0" encoding="utf-8"?>
<svg version="1.1" xmlns:xlink="http://www.w3.org/1999/xlink" width="111px" height="103px" xmlns="http://www.w3.org/2000/svg">
  <g transform="matrix(1 0 0 1 -182 -106 )">
    <path d="M 33.94419642857143 4.080915178571427  C 40.799107142857146 1.3603050595238089  47.984375 0  55.5 0  C 63.01562500000001 0  70.20089285714286 1.3603050595238089  77.05580357142857 4.080915178571427  C 83.91071428571429 6.801525297619045  89.81584821428571 10.4609375  94.77120535714286 15.059151785714281  C 99.72656250000001 19.657366071428573  103.67020089285715 25.136904761904752  106.60212053571429 31.497767857142854  C 109.53404017857144 37.85863095238094  111 44.526041666666664  111 51.5  C 111 58.43563988095238  109.54436383928571 65.08389136904762  106.63309151785714 71.44475446428571  C 103.72181919642857 77.80561755952382  99.78850446428571 83.28515625  94.83314732142857 87.88337053571429  C 89.87779017857143 92.48158482142857  83.97265625000001 96.15057663690476  77.11774553571429 98.89034598214285  C 70.26283482142858 101.63011532738095  63.05691964285714 103  55.5 103  C 47.943080357142854 103  40.73716517857143 101.63969494047619  33.882254464285715 98.91908482142857  C 27.02734375 96.19847470238095  21.132533482142858 92.52948288690476  16.197823660714285 87.912109375  C 11.263113839285714 83.29473586309524  7.329799107142858 77.81519717261905  4.397879464285714 71.47349330357143  C 1.4659598214285712 65.1317894345238  0 58.47395833333333  0 51.5  C 0 44.526041666666664  1.4659598214285712 37.85863095238094  4.397879464285714 31.497767857142854  C 7.329799107142858 25.136904761904752  11.2734375 19.657366071428573  16.228794642857142 15.059151785714281  C 21.184151785714285 10.4609375  27.089285714285715 6.801525297619045  33.94419642857143 4.080915178571427  Z M 74.88783482142857 58.857142857142854  C 84.79854910714286 58.857142857142854  91.11662946428571 65.12220982142857  93.84207589285714 77.65234375  C 99.99497767857144 69.79706101190476  103.07142857142857 61.07961309523809  103.07142857142857 51.5  C 103.07142857142857 45.52232142857142  101.81194196428572 39.81287202380952  99.29296875 34.37165178571428  C 96.77399553571429 28.930431547619044  93.3878348214286 24.23642113095237  89.13448660714286 20.28962053571428  C 84.88113839285715 16.34281994047619  79.82254464285714 13.20070684523809  73.95870535714286 10.86328125  C 68.09486607142858 8.525855654761898  61.941964285714285 7.357142857142854  55.5 7.357142857142854  C 49.058035714285715 7.357142857142854  42.90513392857143 8.525855654761898  37.041294642857146 10.86328125  C 31.17745535714286 13.20070684523809  26.11886160714286 16.34281994047619  21.865513392857142 20.28962053571428  C 17.61216517857143 24.23642113095237  14.226004464285715 28.930431547619044  11.70703125 34.37165178571428  C 9.188058035714286 39.81287202380952  7.928571428571428 45.52232142857142  7.928571428571428 51.5  C 7.928571428571428 61.07961309523809  11.005022321428573 69.79706101190476  17.157924107142858 77.65234375  C 19.883370535714285 65.12220982142857  26.201450892857142 58.857142857142854  36.11216517857143 58.857142857142854  C 41.521763392857146 63.761904761904766  47.984375 66.21428571428571  55.5 66.21428571428571  C 63.01562500000001 66.21428571428571  69.47823660714286 63.761904761904766  74.88783482142857 58.857142857142854  Z M 72.31724330357143 56.06947544642858  C 76.962890625 51.75864955357142  79.28571428571429 46.556919642857146  79.28571428571429 40.46428571428572  C 79.28571428571429 34.37165178571428  76.962890625 29.169921875  72.31724330357143 24.859095982142854  C 67.67159598214286 20.54827008928572  62.065848214285715 18.392857142857146  55.5 18.392857142857146  C 48.934151785714285 18.392857142857146  43.328404017857146 20.54827008928572  38.68275669642857 24.859095982142854  C 34.037109375 29.169921875  31.71428571428571 34.37165178571428  31.71428571428571 40.46428571428572  C 31.71428571428571 46.556919642857146  34.037109375 51.75864955357142  38.68275669642857 56.06947544642858  C 43.328404017857146 60.38030133928571  48.934151785714285 62.53571428571429  55.5 62.53571428571429  C 62.065848214285715 62.53571428571429  67.67159598214286 60.38030133928571  72.31724330357143 56.06947544642858  Z " fill-rule="nonzero" fill="#000000" stroke="none" transform="matrix(1 0 0 1 182 106 )" />
  </g>
</svg>