<?xml version="1.0" encoding="utf-8"?>
<svg version="1.1" xmlns:xlink="http://www.w3.org/1999/xlink" width="18px" height="18px" xmlns="http://www.w3.org/2000/svg">
  <g transform="matrix(1 0 0 1 -164 -524 )">
    <path d="M 4.251632047477745 10.362017804154302  L 10.362017804154302 4.251632047477745  L 13.737685459940652 7.627299703264094  L 7.627299703264095 13.737685459940653  L 4.251632047477745 10.362017804154302  Z M 7.627299703264095 14.902077151335313  C 7.819584569732939 14.902077151335313  7.9798219584569745 14.837982195845697  8.1080118694362 14.709792284866468  L 14.709792284866468 8.1080118694362  C 14.845103857566768 7.972700296735905  14.912759643916914 7.812462908011869  14.912759643916914 7.627299703264094  C 14.912759643916914 7.442136498516321  14.845103857566768 7.281899109792284  14.709792284866468 7.146587537091989  L 10.84272997032641 3.279525222551929  C 10.714540059347181 3.1513353115727014  10.554302670623144 3.087240356083086  10.362017804154302 3.087240356083086  C 10.16973293768546 3.087240356083086  10.009495548961425 3.1513353115727014  9.881305637982194 3.279525222551929  L 3.279525222551929 9.881305637982194  C 3.144213649851632 10.016617210682492  3.076557863501484 10.176854599406528  3.076557863501484 10.362017804154302  C 3.076557863501484 10.547181008902076  3.144213649851632 10.707418397626114  3.279525222551929 10.84272997032641  L 7.146587537091988 14.709792284866468  C 7.274777448071216 14.837982195845697  7.435014836795252 14.902077151335313  7.627299703264095 14.902077151335313  Z M 18 6.938278931750741  C 18 7.319287833827893  17.86824925816024 7.6415430267062305  17.60474777448071 7.905044510385756  L 7.915727002967359 17.60474777448071  C 7.652225519287834 17.86824925816024  7.329970326409496 18  6.948961424332344 18  C 6.567952522255193 18  6.2456973293768545 17.86824925816024  5.982195845697329 17.60474777448071  L 4.63620178041543 16.258753709198814  C 5.035014836795253 15.859940652818992  5.234421364985163 15.375667655786351  5.234421364985163 14.80593471810089  C 5.234421364985163 14.23620178041543  5.035014836795253 13.75192878338279  4.63620178041543 13.353115727002969  C 4.237388724035609 12.954302670623145  3.753115727002968 12.754896142433235  3.1833827893175077 12.754896142433235  C 2.6136498516320477 12.754896142433235  2.1293768545994065 12.954302670623145  1.7305637982195847 13.353115727002969  L 0.39525222551928785 12.007121661721069  C 0.1317507418397627 11.743620178041542  0 11.421364985163201  0 11.040356083086053  C 0 10.6593471810089  0.1317507418397627 10.337091988130563  0.39525222551928785 10.07359050445104  L 10.084272997032642 0.3952522255192883  C 10.347774480712168 0.13175074183976143  10.670029673590506 0  11.051038575667656 0  C 11.43204747774481 0  11.754302670623147 0.13175074183976143  12.01780415430267 0.3952522255192883  L 13.353115727002967 1.7305637982195852  C 12.954302670623147 2.129376854599405  12.754896142433235 2.6136498516320463  12.754896142433235 3.1833827893175064  C 12.754896142433235 3.753115727002967  12.954302670623147 4.237388724035606  13.353115727002967 4.63620178041543  C 13.751928783382791 5.035014836795252  14.236201780415431 5.234421364985164  14.80593471810089 5.234421364985164  C 15.375667655786353 5.234421364985164  15.859940652818992 5.035014836795252  16.258753709198814 4.63620178041543  L 17.60474777448071 5.971513353115727  C 17.86824925816024 6.23501483679525  18 6.55727002967359  18 6.938278931750741  Z " fill-rule="nonzero" fill="#000000" stroke="none" transform="matrix(1 0 0 1 164 524 )" />
  </g>
</svg>