<?xml version="1.0" encoding="utf-8"?>
<svg version="1.1" xmlns:xlink="http://www.w3.org/1999/xlink" width="27px" height="24px" xmlns="http://www.w3.org/2000/svg">
  <g transform="matrix(1 0 0 1 -159 -484 )">
    <path d="M 9.768028846153847 20.28409090909091  C 10.17908653846154 20.715909090909086  10.384615384615385 21.227272727272727  10.384615384615385 21.818181818181817  C 10.384615384615385 22.409090909090914  10.17908653846154 22.920454545454547  9.768028846153847 23.352272727272727  C 9.356971153846155 23.784090909090907  8.870192307692308 24  8.307692307692308 24  C 7.745192307692308 24  7.258413461538463 23.784090909090907  6.847355769230769 23.352272727272727  C 6.436298076923077 22.920454545454547  6.230769230769231 22.409090909090914  6.230769230769231 21.818181818181817  C 6.230769230769231 21.227272727272727  6.436298076923077 20.715909090909086  6.847355769230769 20.28409090909091  C 7.258413461538463 19.85227272727273  7.745192307692308 19.636363636363633  8.307692307692308 19.636363636363633  C 8.870192307692308 19.636363636363633  9.356971153846155 19.85227272727273  9.768028846153847 20.28409090909091  Z M 24.306490384615383 20.28409090909091  C 24.717548076923073 20.715909090909086  24.923076923076923 21.227272727272727  24.923076923076923 21.818181818181817  C 24.923076923076923 22.409090909090914  24.717548076923073 22.920454545454547  24.306490384615383 23.352272727272727  C 23.895432692307693 23.784090909090907  23.408653846153847 24  22.846153846153847 24  C 22.283653846153847 24  21.796875000000004 23.784090909090907  21.385817307692307 23.352272727272727  C 20.974759615384617 22.920454545454547  20.76923076923077 22.409090909090914  20.76923076923077 21.818181818181817  C 20.76923076923077 21.227272727272727  20.974759615384617 20.715909090909086  21.385817307692307 20.28409090909091  C 21.796875000000004 19.85227272727273  22.283653846153847 19.636363636363633  22.846153846153847 19.636363636363633  C 23.408653846153847 19.636363636363633  23.895432692307693 19.85227272727273  24.306490384615383 20.28409090909091  Z M 26.69170673076923 2.5056818181818175  C 26.89723557692308 2.7215909090909065  27 2.977272727272724  27 3.2727272727272725  L 27 12  C 27 12.272727272727273  26.910757211538463 12.514204545454547  26.732271634615383 12.72443181818182  C 26.553786057692307 12.934659090909088  26.334735576923077 13.05681818181818  26.075120192307693 13.09090909090909  L 9.135216346153847 15.170454545454545  C 9.275841346153847 15.852272727272727  9.346153846153847 16.25  9.346153846153847 16.363636363636367  C 9.346153846153847 16.54545454545454  9.216346153846153 16.90909090909091  8.956730769230768 17  L 23.884615384615383 17  C 24.165865384615387 17.454545454545453  24.40925480769231 17.5625  24.614783653846153 17.77840909090909  C 24.820312499999996 17.99431818181818  24.923076923076923 18.25  24.923076923076923 18.545454545454547  C 24.923076923076923 18.840909090909086  24.820312499999996 19.096590909090907  24.614783653846153 19.3125  C 24.40925480769231 19.528409090909093  24.165865384615387 19.636363636363633  23.884615384615383 19.636363636363633  L 7.269230769230769 19.636363636363633  C 6.98798076923077 19.636363636363633  6.744591346153846 19.528409090909093  6.5390625 19.3125  C 6.333533653846154 19.096590909090907  6.230769230769231 18.840909090909086  6.230769230769231 18.545454545454547  C 6.230769230769231 18.420454545454547  6.274038461538461 18.241477272727273  6.360576923076923 18.008522727272727  C 6.447115384615385 17.77556818181818  6.533653846153846 17.571022727272727  6.6201923076923075 17.394886363636367  C 6.70673076923077 17.218749999999996  6.823016826923077 16.991477272727273  6.969050480769231 16.71306818181818  C 7.115084134615385 16.434659090909086  7.19891826923077 16.267045454545453  7.220552884615385 16.210227272727273  L 4.3485576923076925 2.1818181818181825  L 1.0384615384615385 2.1818181818181825  C 0.7572115384615385 2.1818181818181825  0.5138221153846154 2.073863636363634  0.3082932692307692 1.857954545454545  C 0.10276442307692307 1.6420454545454533  0 1.3863636363636358  0 1.09090909090909  C 0 0.7954545454545441  0.10276442307692307 0.539772727272724  0.3082932692307692 0.3238636363636376  C 0.5138221153846154 0.1079545454545432  0.7572115384615385 0  1.0384615384615385 0  L 5.1923076923076925 0  C 5.365384615384616 0  5.51953125 0.03693181818181657  5.654747596153846 0.11079545454545503  C 5.789963942307693 0.18465909090909083  5.895432692307693 0.2727272727272725  5.971153846153846 0.375  C 6.046875 0.4772727272727275  6.1171875 0.6164772727272689  6.182091346153846 0.7926136363636376  C 6.246995192307693 0.9687499999999982  6.290264423076924 1.1164772727272725  6.311899038461538 1.235795454545455  C 6.333533653846154 1.3551136363636376  6.36328125 1.5227272727272707  6.401141826923077 1.7386363636363624  C 6.439002403846154 1.9545454545454515  6.463341346153847 2.1022727272727257  6.474158653846154 2.1818181818181825  L 25.961538461538463 2.1818181818181825  C 26.242788461538463 2.1818181818181825  26.486177884615387 2.2897727272727257  26.69170673076923 2.5056818181818175  Z " fill-rule="nonzero" fill="#000000" stroke="none" transform="matrix(1 0 0 1 159 484 )" />
  </g>
</svg>