<?xml version="1.0" encoding="utf-8"?>
<svg version="1.1" xmlns:xlink="http://www.w3.org/1999/xlink" width="19px" height="20px" xmlns="http://www.w3.org/2000/svg">
  <g transform="matrix(1 0 0 1 -971 -136 )">
    <path d="M 3.2105610561056106 18.31023102310231  L 4.552475247524752 18.31023102310231  L 5.693729372937294 17.10891089108911  L 2.7465346534653463 14.006600660066006  L 1.6052805280528053 15.207920792079207  L 1.6052805280528053 16.620462046204622  L 3.2105610561056106 16.620462046204622  L 3.2105610561056106 18.31023102310231  Z M 11.023762376237624 6.2838283828382835  C 11.082288228822883 6.222222222222222  11.111551155115512 6.1474147414741465  11.111551155115512 6.05940594059406  C 11.111551155115512 5.865786578657866  11.01958195819582 5.768976897689768  10.835643564356435 5.768976897689768  C 10.752035203520354 5.768976897689768  10.680968096809682 5.799779977997799  10.622442244224423 5.861386138613862  L 3.825082508250825 13.016501650165019  C 3.7665566556655667 13.078107810781077  3.7372937293729374 13.152915291529151  3.7372937293729374 13.24092409240924  C 3.7372937293729374 13.43454345434543  3.8292629262926297 13.531353135313534  4.013201320132013 13.531353135313534  C 4.096809680968097 13.531353135313534  4.167876787678768 13.500550055005501  4.226402640264026 13.438943894389439  L 11.023762376237624 6.2838283828382835  Z M 0 14.50825082508251  L 10.434323432343234 3.5247524752475257  L 15.651485148514851 9.016501650165017  L 5.217161716171617 20  L 0 20  L 0 14.50825082508251  Z M 18.535973597359735 3.5907590759075902  C 18.845324532453247 3.9339933993399345  19 4.334433443344334  19 4.792079207920792  C 19 5.258525852585258  18.845324532453247 5.654565456545653  18.535973597359735 5.980198019801981  L 16.454125412541252 8.17161716171617  L 11.236963696369637 2.6798679867986808  L 13.318811881188118 0.5016501650165006  C 13.61980198019802 0.1672167216721654  13.996039603960396 0  14.447524752475248 0  C 14.890649064906492 0  15.271067106710673 0.1672167216721654  15.588778877887789 0.5016501650165006  L 18.535973597359735 3.5907590759075902  Z " fill-rule="nonzero" fill="#000000" stroke="none" transform="matrix(1 0 0 1 971 136 )" />
  </g>
</svg>