<?xml version="1.0" encoding="utf-8"?>
<svg version="1.1" xmlns:xlink="http://www.w3.org/1999/xlink" width="19px" height="17px" xmlns="http://www.w3.org/2000/svg">
  <g transform="matrix(1 0 0 1 -598 -433 )">
    <path d="M 6.873798076923077 14.367897727272728  C 7.163060897435899 14.673768939393938  7.307692307692308 15.035984848484848  7.307692307692308 15.454545454545453  C 7.307692307692308 15.873106060606062  7.163060897435899 16.23532196969697  6.873798076923077 16.541193181818183  C 6.584535256410257 16.847064393939394  6.241987179487181 17  5.846153846153847 17  C 5.450320512820514 17  5.107772435897437 16.847064393939394  4.818509615384615 16.541193181818183  C 4.529246794871795 16.23532196969697  4.384615384615385 15.873106060606062  4.384615384615385 15.454545454545453  C 4.384615384615385 15.035984848484848  4.529246794871795 14.673768939393938  4.818509615384615 14.367897727272728  C 5.107772435897437 14.062026515151517  5.450320512820514 13.909090909090908  5.846153846153847 13.909090909090908  C 6.241987179487181 13.909090909090908  6.584535256410257 14.062026515151517  6.873798076923077 14.367897727272728  Z M 17.104567307692307 14.367897727272728  C 17.393830128205128 14.673768939393938  17.53846153846154 15.035984848484848  17.53846153846154 15.454545454545453  C 17.53846153846154 15.873106060606062  17.393830128205128 16.23532196969697  17.104567307692307 16.541193181818183  C 16.81530448717949 16.847064393939394  16.472756410256412 17  16.076923076923077 17  C 15.681089743589745 17  15.338541666666668 16.847064393939394  15.049278846153847 16.541193181818183  C 14.760016025641027 16.23532196969697  14.615384615384617 15.873106060606062  14.615384615384617 15.454545454545453  C 14.615384615384617 15.035984848484848  14.760016025641027 14.673768939393938  15.049278846153847 14.367897727272728  C 15.338541666666668 14.062026515151517  15.681089743589745 13.909090909090908  16.076923076923077 13.909090909090908  C 16.472756410256412 13.909090909090908  16.81530448717949 14.062026515151517  17.104567307692307 14.367897727272728  Z M 18.783052884615383 1.7748579545454541  C 18.927684294871796 1.9277935606060588  19 2.108901515151513  19 2.318181818181818  L 19 8.5  C 19 8.693181818181818  18.93719951923077 8.86422821969697  18.811598557692307 9.013139204545457  C 18.685997596153847 9.162050189393938  18.53185096153846 9.248579545454543  18.349158653846153 9.272727272727272  L 6.428485576923077 10.745738636363637  C 6.527443910256411 11.228693181818182  6.576923076923077 11.510416666666666  6.576923076923077 11.590909090909092  C 6.576923076923077 11.719696969696967  6.485576923076923 11.977272727272728  6.302884615384615 12.363636363636363  L 16.807692307692307 12.363636363636363  C 17.005608974358974 12.363636363636363  17.176883012820515 12.440104166666666  17.321514423076923 12.593039772727272  C 17.466145833333332 12.745975378787879  17.53846153846154 12.927083333333334  17.53846153846154 13.136363636363637  C 17.53846153846154 13.345643939393938  17.466145833333332 13.526751893939393  17.321514423076923 13.6796875  C 17.176883012820515 13.832623106060607  17.005608974358974 13.909090909090908  16.807692307692307 14  L 5.115384615384615 14  C 4.917467948717949 13.909090909090908  4.746193910256411 13.832623106060607  4.6015625 13.6796875  C 4.456931089743589 13.526751893939393  4.384615384615385 13.345643939393938  4.384615384615385 13.136363636363637  C 4.384615384615385 13.04782196969697  4.415064102564102 12.921046401515152  4.475961538461538 12.756036931818182  C 4.5368589743589745 12.591027462121211  4.597756410256411 12.446141098484848  4.658653846153846 12.321377840909092  C 4.719551282051283 12.19661458333333  4.801382211538462 12.035629734848484  4.904146634615385 11.838423295454543  C 5.006911057692308 11.641216856060602  5.065905448717949 11.52249053030303  5.081129807692308 11.482244318181818  L 3.060096153846154 1.5454545454545459  L 0.7307692307692308 1.5454545454545459  C 0.5328525641025642 1.5454545454545459  0.36157852564102566 1.4689867424242409  0.21694711538461536 1.316051136363636  C 0.07231570512820512 1.1631155303030294  0 0.9820075757575754  0 0.772727272727272  C 0 0.5634469696969687  0.07231570512820512 0.3823390151515128  0.21694711538461536 0.22940340909090995  C 0.36157852564102566 0.07646780303030143  0.5328525641025642 0  0.7307692307692308 0  L 3.653846153846154 0  C 3.775641025641026 0  3.8841145833333335 0.026160037878786735  3.9792668269230766 0.07848011363636398  C 4.074419070512821 0.13080018939393934  4.148637820512821 0.193181818181818  4.201923076923077 0.265625  C 4.255208333333334 0.338068181818182  4.3046875 0.4366714015151488  4.350360576923077 0.56143465909091  C 4.396033653846154 0.6861979166666654  4.426482371794872 0.790838068181818  4.441706730769231 0.875355113636364  C 4.45693108974359 0.95987215909091  4.477864583333334 1.0785984848484835  4.504507211538462 1.23153409090909  C 4.53114983974359 1.3844696969696948  4.548277243589744 1.4891098484848473  4.555889423076923 1.5454545454545459  L 18.26923076923077 1.5454545454545459  C 18.467147435897438 1.5454545454545459  18.638421474358974 1.6219223484848473  18.783052884615383 1.7748579545454541  Z " fill-rule="nonzero" fill="#000000" stroke="none" transform="matrix(1 0 0 1 598 433 )" />
  </g>
</svg>