<?xml version="1.0" encoding="utf-8"?>
<svg version="1.1" xmlns:xlink="http://www.w3.org/1999/xlink" width="91px" height="64px" xmlns="http://www.w3.org/2000/svg">
  <g transform="matrix(1 0 0 1 -87 -472 )">
    <path d="M 87 472  L 178 472  L 178 536  L 87 536  L 87 472  " fill-rule="nonzero" fill="#cccccc" stroke="none" />
    <path d="M 91 476  L 174 476  L 174 532  L 91 532  L 91 476  " fill-rule="nonzero" fill="#ffffff" stroke="none" />
    <path d="M 139.12 491.20000000000005  C 136.432 491.20000000000005  134.32 489.088  134.32 486.40000000000003  C 134.32 483.71200000000005  136.432 481.6  139.12 481.6  C 141.808 481.6  143.92 483.71200000000005  143.92 486.40000000000003  C 143.92 489.088  141.808 491.20000000000005  139.12 491.20000000000005  " fill-rule="nonzero" fill="#cccccc" stroke="none" />
    <path d="M 93 531  L 93 501.85  L 113 488.6  L 141 508.63516483516486  L 157 496.55  L 173 508.63516483516486  L 173 531  L 93 531  " fill-rule="nonzero" fill="#169bd5" stroke="none" />
  </g>
</svg>