<?xml version="1.0" encoding="utf-8"?>
<svg version="1.1" xmlns:xlink="http://www.w3.org/1999/xlink" width="30px" height="28px" xmlns="http://www.w3.org/2000/svg">
  <g transform="matrix(1 0 0 1 -555 -488 )">
    <path d="M 24.70982142857143 15.020833333333332  C 26.80803571428572 12.736111111111109  27.857142857142858 10.572916666666666  27.857142857142858 8.53125  C 27.857142857142858 7.546875  27.73716517857143 6.6779513888888875  27.49720982142857 5.924479166666666  C 27.257254464285715 5.171006944444441  26.950334821428577 4.5724826388888875  26.576450892857142 4.12890625  C 26.20256696428572 3.6853298611111094  25.74776785714286 3.323784722222222  25.21205357142857 3.0442708333333344  C 24.67633928571429 2.7647569444444406  24.151785714285715 2.5763888888888875  23.638392857142858 2.4791666666666656  C 23.125 2.3819444444444406  22.578125000000004 2.3333333333333344  21.997767857142858 2.3333333333333344  C 21.41741071428572 2.3333333333333344  20.79241071428571 2.48828125  20.122767857142858 2.7981770833333344  C 19.453125 3.1080729166666656  18.836495535714285 3.496961805555553  18.27287946428571 3.96484375  C 17.709263392857146 4.432725694444441  17.2265625 4.870225694444441  16.82477678571429 5.27734375  C 16.422991071428573 5.684461805555554  16.088169642857146 6.058159722222221  15.8203125 6.3984375  C 15.619419642857146 6.665798611111109  15.345982142857144 6.799479166666666  15 6.799479166666666  C 14.654017857142858 6.799479166666666  14.380580357142856 6.665798611111109  14.1796875 6.3984375  C 13.911830357142856 6.058159722222221  13.577008928571429 5.684461805555554  13.175223214285715 5.27734375  C 12.7734375 4.870225694444441  12.29073660714286 4.432725694444441  11.727120535714285 3.96484375  C 11.163504464285715 3.496961805555553  10.546875 3.1080729166666656  9.877232142857144 2.7981770833333344  C 9.207589285714285 2.48828125  8.582589285714288 2.3333333333333344  8.002232142857144 2.3333333333333344  C 7.421875 2.3333333333333344  6.875000000000002 2.3819444444444406  6.361607142857142 2.4791666666666656  C 5.8482142857142865 2.5763888888888875  5.323660714285714 2.7647569444444406  4.787946428571428 3.0442708333333344  C 4.252232142857142 3.323784722222222  3.7974330357142856 3.6853298611111094  3.423549107142857 4.12890625  C 3.049665178571429 4.5724826388888875  2.7427455357142856 5.171006944444441  2.502790178571429 5.924479166666666  C 2.262834821428572 6.6779513888888875  2.142857142857143 7.546875  2.142857142857143 8.53125  C 2.142857142857143 10.572916666666666  3.186383928571429 12.730034722222221  5.2734375 15.002604166666668  L 15 25.2109375  L 24.70982142857143 15.020833333333332  Z M 27.87388392857143 2.2604166666666656  C 29.291294642857146 3.7673611111111094  30 5.8576388888888875  30 8.53125  C 30 11.217013888888888  28.722098214285715 13.951388888888888  26.166294642857142 16.734375  L 15.736607142857142 27.671875  C 15.535714285714286 27.890625  15.290178571428573 28  15 28  C 14.709821428571429 28  14.464285714285715 27.890625  14.263392857142856 27.671875  L 3.8169642857142856 16.697916666666668  C 3.7053571428571432 16.600694444444443  3.551897321428572 16.442708333333332  3.356584821428571 16.223958333333332  C 3.1612723214285716 16.005208333333332  2.8515625000000004 15.607204861111112  2.427455357142857 15.029947916666668  C 2.0033482142857144 14.452690972222218  1.6238839285714286 13.860243055555554  1.2890625 13.252604166666666  C 0.9542410714285714 12.644965277777779  0.6556919642857143 11.909722222222221  0.3934151785714286 11.046875  C 0.13113839285714285 10.184027777777775  0 9.345486111111109  0 8.53125  C 0 5.8576388888888875  0.708705357142857 3.7673611111111094  2.126116071428571 2.2604166666666656  C 3.543526785714286 0.7534722222222219  5.502232142857142 0  8.002232142857144 0  C 8.694196428571429 0  9.400111607142856 0.13064236111110938  10.119977678571429 0.39192708333333437  C 10.83984375 0.6532118055555531  11.509486607142856 1.0056423611111094  12.12890625 1.44921875  C 12.748325892857146 1.8927951388888875  13.281250000000004 2.309027777777775  13.727678571428571 2.6979166666666656  C 14.174107142857144 3.086805555555553  14.598214285714285 3.5  15 3.9375  C 15.401785714285714 3.5  15.82589285714286 3.086805555555553  16.27232142857143 2.6979166666666656  C 16.718750000000004 2.309027777777775  17.251674107142858 1.8927951388888875  17.87109375 1.44921875  C 18.490513392857142 1.0056423611111094  19.16015625 0.6532118055555531  19.88002232142857 0.39192708333333437  C 20.599888392857142 0.13064236111110938  21.305803571428573 0  21.997767857142858 0  C 24.497767857142858 0  26.45647321428572 0.7534722222222219  27.87388392857143 2.2604166666666656  Z " fill-rule="nonzero" fill="#000000" stroke="none" transform="matrix(1 0 0 1 555 488 )" />
  </g>
</svg>