<?xml version="1.0" encoding="utf-8"?>
<svg version="1.1" xmlns:xlink="http://www.w3.org/1999/xlink" width="28px" height="27px" xmlns="http://www.w3.org/2000/svg">
  <g transform="matrix(1 0 0 1 -889 -489 )">
    <path d="M 1.5494791666666665 0  L 26.450520833333336 0  C 26.87586805555556 0  27.24045138888889 0.14648437499999967  27.544270833333336 0.439453124999999  C 27.848090277777775 0.7324218749999983  28 1.0839843749999964  28 1.4941406249999991  L 28 25.505859375  C 28 25.916015624999996  27.848090277777775 26.267578125  27.544270833333336 26.560546875  C 27.24045138888889 26.853515625  26.87586805555556 27  26.450520833333336 27  L 19 27  L 19 16.541015624999996  L 22.950520833333336 16.541015624999996  L 23.497395833333336 12.462890624999998  L 19.322916666666664 12.462890624999998  L 19.322916666666664 9.861328125  C 19.322916666666664 9.205078124999996  19.46571180555556 8.712890624999996  19.751302083333336 8.384765625  C 20.036892361111114 8.056640625  20.592881944444446 7.892578125000001  21.419270833333336 7.892578125000001  L 23.643229166666664 7.874999999999999  L 23.643229166666664 4.236328124999999  C 22.877604166666664 4.130859374999999  21.796006944444446 4.078124999999999  20.3984375 4.078124999999999  C 18.745659722222225 4.078124999999999  17.42404513888889 4.546874999999997  16.43359375 5.484375  C 15.443142361111112 6.421875  14.947916666666666 7.746093749999998  14.947916666666666 9.457031249999998  L 14.947916666666666 12.462890624999998  L 11.302083333333332 12.462890624999998  L 11.302083333333332 16.541015624999996  L 15 16.541015624999996  L 15 27  L 1.5494791666666665 27  C 1.1241319444444446 27  0.7595486111111113 26.853515625  0.4557291666666667 26.560546875  C 0.15190972222222218 26.267578125  0 25.916015624999996  0 25.505859375  L 0 1.4941406249999991  C 0 1.0839843749999964  0.15190972222222218 0.7324218749999983  0.4557291666666667 0.439453124999999  C 0.7595486111111113 0.14648437499999967  1.1241319444444446 0  1.5494791666666665 0  Z " fill-rule="nonzero" fill="#000000" stroke="none" transform="matrix(1 0 0 1 889 489 )" />
  </g>
</svg>