<?xml version="1.0" encoding="utf-8"?>
<svg version="1.1" xmlns:xlink="http://www.w3.org/1999/xlink" width="27px" height="24px" xmlns="http://www.w3.org/2000/svg">
  <g transform="matrix(1 0 0 1 -978 -492 )">
    <path d="M 23.813451776649746 3.7875000000000005  C 24.8756345177665 3.6624999999999996  25.93781725888325 3.349999999999996  27 2.8500000000000005  C 26.234771573604064 4.0749999999999975  25.309644670050762 5.1187499999999995  24.2246192893401 5.981250000000001  C 24.236040609137056 6.156249999999999  24.241751269035532 6.4187499999999975  24.241751269035532 6.768749999999999  C 24.241751269035532 8.393749999999997  24.024746192893403 10.015624999999998  23.590736040609137 11.634374999999999  C 23.156725888324875 13.253124999999997  22.497144670050762 14.80625  21.611992385786802 16.293750000000003  C 20.726840101522846 17.78125  19.67322335025381 19.096874999999997  18.451142131979697 20.240625  C 17.229060913705585 21.384375  15.755710659898478 22.296875  14.031091370558377 22.978125  C 12.306472081218274 23.659374999999997  10.461928934010155 24  8.49746192893401 24  C 5.402284263959392 24  2.5697969543147208 23.09375  0 21.28125  C 0.3997461928934012 21.331250000000004  0.8451776649746194 21.356250000000003  1.336294416243655 21.356250000000003  C 3.906091370558377 21.356250000000003  6.196065989847716 20.49375  8.206218274111675 18.768749999999997  C 7.006979695431473 18.74375  5.933375634517767 18.340624999999996  4.9854060913705585 17.559375000000003  C 4.037436548223351 16.778124999999996  3.386421319796955 15.781249999999998  3.0323604060913705 14.568750000000001  C 3.409263959390863 14.63125  3.7576142131979706 14.662500000000001  4.0774111675126905 14.662500000000001  C 4.568527918781726 14.662500000000001  5.053934010152284 14.59375  5.533629441624365 14.456249999999999  C 4.254441624365483 14.16875  3.1951142131979697 13.471874999999999  2.3556472081218276 12.365625000000001  C 1.5161802030456852 11.259374999999999  1.0964467005076144 9.975000000000001  1.0964467005076142 8.512500000000001  L 1.0964467005076142 8.4375  C 1.8730964467005078 8.9125  2.7068527918781724 9.16875  3.5977157360406093 9.206249999999999  C 2.8439086294416245 8.656249999999998  2.2442893401015227 7.937499999999999  1.7988578680203047 7.049999999999999  C 1.3534263959390862 6.162499999999996  1.130710659898477 5.1999999999999975  1.130710659898477 4.1625000000000005  C 1.130710659898477 3.062499999999999  1.3819796954314723 2.043750000000001  1.884517766497462 1.106250000000001  C 3.266497461928934 2.968749999999999  4.948286802030458 4.459375  6.92988578680203 5.578125  C 8.911484771573605 6.696875  11.032994923857869 7.31875  13.294416243654823 7.4437500000000005  C 13.20304568527919 6.968749999999998  13.157360406091371 6.506249999999998  13.157360406091371 6.0562499999999995  C 13.157360406091371 4.381249999999996  13.69701776649746 2.953125  14.776332487309643 1.7718750000000005  C 15.855647208121827 0.5906250000000011  17.16053299492386 0  18.690989847715738 0  C 20.289974619289342 0  21.637690355329948 0.6375000000000011  22.73413705583756 1.9125000000000005  C 23.979060913705585 1.6499999999999995  25.1497461928934 1.1625000000000005  26.246192893401016 0.45000000000000107  C 25.82360406091371 1.8874999999999966  25.012690355329955 3  23.813451776649746 3.7875000000000005  Z " fill-rule="nonzero" fill="#000000" stroke="none" transform="matrix(1 0 0 1 978 492 )" />
  </g>
</svg>