<?xml version="1.0" encoding="utf-8"?>
<svg version="1.1" xmlns:xlink="http://www.w3.org/1999/xlink" width="27px" height="28px" xmlns="http://www.w3.org/2000/svg">
  <g transform="matrix(1 0 0 1 -227 -511 )">
    <path d="M 13.778073089700996 16.807291666666668  L 13.778073089700996 12  L 26.784717607973423 12  C 26.928239202657807 12.809027777777779  27 13.586805555555554  27 14.328125  C 27 16.965277777777775  26.455813953488374 19.319878472222218  25.367441860465114 21.391927083333336  C 24.279069767441865 23.463975694444446  22.727242524916946 25.083333333333336  20.711960132890365 26.25  C 18.696677740863787 27.416666666666664  16.385382059800666 28  13.778073089700996 28  C 11.900332225913623 28  10.112292358803987 27.63237847222222  8.413953488372094 26.897135416666664  C 6.7156146179402 26.161892361111114  5.2504983388704325 25.16840277777778  4.018604651162791 23.916666666666664  C 2.7867109634551492 22.664930555555554  1.8089700996677742 21.17621527777778  1.0853820598006645 19.450520833333332  C 0.3617940199335548 17.724826388888886  0 15.907986111111112  0 14  C 0 12.092013888888888  0.3617940199335548 10.275173611111109  1.0853820598006645 8.549479166666666  C 1.8089700996677742 6.823784722222221  2.7867109634551492 5.335069444444441  4.018604651162791 4.083333333333334  C 5.2504983388704325 2.831597222222222  6.7156146179402 1.8381076388888875  8.413953488372094 1.1028645833333344  C 10.112292358803987 0.367621527777775  11.900332225913623 0  13.778073089700996 0  C 17.366112956810632 0  20.445847176079738 1.2213541666666656  23.017275747508304 3.6640625  L 19.26777408637874 7.328125  C 17.79667774086379 5.881944444444441  15.966777408637876 5.158854166666666  13.778073089700996 5.158854166666666  C 12.235215946843853 5.158854166666666  10.808970099667775 5.553819444444441  9.499335548172757 6.34375  C 8.189700996677741 7.133680555555554  7.15215946843854 8.206163194444441  6.386710963455149 9.561197916666666  C 5.621262458471761 10.916232638888888  5.238538205980067 12.395833333333334  5.238538205980067 14  C 5.238538205980067 15.604166666666668  5.621262458471761 17.083767361111107  6.386710963455149 18.438802083333332  C 7.15215946843854 19.793836805555557  8.189700996677741 20.866319444444443  9.499335548172757 21.65625  C 10.808970099667775 22.446180555555554  12.235215946843853 22.841145833333336  13.778073089700996 22.841145833333336  C 14.818604651162792 22.841145833333336  15.775415282392029 22.6953125  16.648504983388705 22.403645833333336  C 17.52159468438538 22.111979166666664  18.23920265780731 21.747395833333336  18.801328903654486 21.309895833333336  C 19.36345514950166 20.872395833333332  19.853820598006646 20.374131944444443  20.272425249169437 19.815104166666668  C 20.69102990033223 19.256076388888886  20.999003322259135 18.727430555555557  21.196345514950167 18.229166666666668  C 21.393687707641195 17.730902777777775  21.528239202657808 17.256944444444443  21.6 16.807291666666668  L 13.778073089700996 16.807291666666668  Z " fill-rule="nonzero" fill="#000000" stroke="none" transform="matrix(1 0 0 1 227 511 )" />
  </g>
</svg>