<?xml version="1.0" encoding="utf-8"?>
<svg version="1.1" xmlns:xlink="http://www.w3.org/1999/xlink" width="30px" height="27px" xmlns="http://www.w3.org/2000/svg">
  <g transform="matrix(1 0 0 1 -227 -571 )">
    <path d="M 5.625 0  L 24.375 0  C 25.92447916666667 0  27.249348958333336 0.49511718749999833  28.349609375 1.4853515625000009  C 29.449869791666664 2.475585937499998  30 3.6679687499999964  30 5.0625  L 30 21.9375  C 30 23.332031249999996  29.449869791666664 24.524414062500004  28.349609375 25.5146484375  C 27.249348958333336 26.5048828125  25.92447916666667 27  24.375 27  L 20.703125 27  L 20.703125 16.541015624999996  L 24.58984375 16.541015624999996  L 25.17578125 12.462890624999998  L 20.703125 12.462890624999998  L 20.703125 9.861328125  C 20.703125 9.205078124999996  20.85611979166667 8.712890624999996  21.162109375 8.384765625  C 21.468098958333336 8.056640625  22.063802083333336 7.892578125000001  22.94921875 7.892578125000001  L 25.33203125 7.874999999999999  L 25.33203125 4.236328124999999  C 24.51171875 4.130859374999999  23.352864583333336 4.078124999999999  21.85546875 4.078124999999999  C 20.08463541666667 4.078124999999999  18.668619791666668 4.546874999999997  17.607421875 5.484375  C 16.546223958333336 6.421875  16.015625 7.746093749999998  16.015625 9.457031249999998  L 16.015625 12.462890624999998  L 12.109375 12.462890624999998  L 12.109375 16.541015624999996  L 16 16.541015624999996  L 16 27  L 5.625 27  C 4.075520833333333 27  2.750651041666667 26.5048828125  1.650390625 25.5146484375  C 0.5501302083333333 24.524414062500004  0 23.332031249999996  0 21.9375  L 0 5.0625  C 0 3.6679687499999964  0.5501302083333333 2.475585937499998  1.650390625 1.4853515625000009  C 2.750651041666667 0.49511718749999833  4.075520833333333 0  5.625 0  Z " fill-rule="nonzero" fill="#000000" stroke="none" transform="matrix(1 0 0 1 227 571 )" />
  </g>
</svg>