<?xml version="1.0" encoding="utf-8"?>
<svg version="1.1" xmlns:xlink="http://www.w3.org/1999/xlink" width="25px" height="27px" xmlns="http://www.w3.org/2000/svg">
  <g transform="matrix(1 0 0 1 -210 7 )">
    <path d="M 24.410774410774412 20.18181818181818  C 24.803591470258137 20.606060606060602  25 21.121212121212118  25 21.727272727272727  C 25 22.333333333333336  24.803591470258137 22.848484848484848  24.410774410774412 23.272727272727273  L 21.548821548821547 26.363636363636363  C 21.156004489337825 26.78787878787879  20.679012345679013 27  20.117845117845118 27  C 19.556677890011226 27  19.079685746352414 26.78787878787879  18.68686868686869 26.363636363636363  L 12.5 19.681818181818183  L 6.313131313131313 26.363636363636363  C 5.920314253647588 26.78787878787879  5.4433221099887765 27  4.882154882154882 27  C 4.320987654320988 27  3.843995510662178 26.78787878787879  3.4511784511784516 26.363636363636363  L 0.5892255892255892 23.272727272727273  C 0.19640852974186326 22.848484848484848  0 22.333333333333336  0 21.727272727272727  C 0 21.121212121212118  0.19640852974186326 20.606060606060602  0.5892255892255892 20.18181818181818  L 6.776094276094276 13.5  L 0.5892255892255892 6.8181818181818175  C 0.19640852974186326 6.393939393939392  0 5.878787878787879  0 5.2727272727272725  C 0 4.666666666666666  0.19640852974186326 4.151515151515148  0.5892255892255892 3.7272727272727284  L 3.4511784511784516 0.6363636363636365  C 3.843995510662178 0.21212121212121116  4.320987654320988 0  4.882154882154882 0  C 5.4433221099887765 0  5.920314253647588 0.21212121212121116  6.313131313131313 0.6363636363636365  L 12.5 7.318181818181819  L 18.68686868686869 0.6363636363636365  C 19.079685746352414 0.21212121212121116  19.556677890011226 0  20.117845117845118 0  C 20.679012345679013 0  21.156004489337825 0.21212121212121116  21.548821548821547 0.6363636363636365  L 24.410774410774412 3.7272727272727284  C 24.803591470258137 4.151515151515148  25 4.666666666666666  25 5.2727272727272725  C 25 5.878787878787879  24.803591470258137 6.393939393939392  24.410774410774412 6.8181818181818175  L 18.223905723905723 13.5  L 24.410774410774412 20.18181818181818  Z " fill-rule="nonzero" fill="#000000" stroke="none" transform="matrix(1 0 0 1 210 -7 )" />
  </g>
</svg>