<?xml version="1.0" encoding="utf-8"?>
<svg version="1.1" xmlns:xlink="http://www.w3.org/1999/xlink" width="21px" height="21px" xmlns="http://www.w3.org/2000/svg">
  <g transform="matrix(1 0 0 1 -917 -129 )">
    <path d="M 12.974609375 12.974609375000002  C 13.658203125 12.291015624999998  14 11.466145833333332  14 10.5  C 14 9.533854166666664  13.658203125 8.708984375  12.974609375 8.025390625  C 12.291015625 7.341796875  11.466145833333336 7.000000000000001  10.5 7.000000000000001  C 9.533854166666668 7.000000000000001  8.708984375 7.341796875  8.025390625 8.025390625  C 7.341796875 8.708984375  7 9.533854166666664  7 10.5  C 7 11.466145833333332  7.341796875 12.291015624999998  8.025390625 12.974609375000002  C 8.708984375 13.658203125  9.533854166666668 14.000000000000002  10.5 14.000000000000002  C 11.466145833333336 14.000000000000002  12.291015625 13.658203125  12.974609375 12.974609375000002  Z M 20.890625 8.6884765625  C 20.963541666666664 8.7841796875  21 8.891276041666666  21 9.009765625  L 21 12.044921874999998  C 21 12.154296875000002  20.963541666666664 12.259114583333334  20.890625 12.359375000000002  C 20.817708333333336 12.459635416666664  20.7265625 12.518880208333332  20.6171875 12.537109374999998  L 18.087890625 12.919921875  C 17.914713541666668 13.412109375  17.736979166666668 13.826822916666666  17.5546875 14.164062500000002  C 17.873697916666668 14.619791666666668  18.361328125 15.248697916666664  19.017578125 16.05078125  C 19.108723958333336 16.16015625  19.154296875 16.274088541666668  19.154296875 16.392578125  C 19.154296875 16.511067708333336  19.11328125 16.615885416666664  19.03125 16.70703125  C 18.78515625 17.044270833333336  18.333984375 17.536458333333336  17.677734375 18.18359375  C 17.021484375 18.830729166666664  16.593098958333336 19.154296875  16.392578125 19.154296875  C 16.283203125 19.154296875  16.164713541666668 19.11328125  16.037109375 19.03125  L 14.150390625 17.5546875  C 13.749348958333334 17.764322916666664  13.334635416666668 17.9375  12.90625 18.07421875  C 12.760416666666668 19.313802083333336  12.628255208333334 20.161458333333336  12.509765625 20.6171875  C 12.445963541666668 20.872395833333336  12.281901041666668 21  12.017578125 21  L 8.982421875 21  C 8.854817708333334 21  8.7431640625 20.961263020833336  8.6474609375 20.8837890625  C 8.5517578125 20.806315104166668  8.499348958333334 20.708333333333336  8.490234375 20.58984375  L 8.107421875 18.07421875  C 7.660807291666668 17.928385416666664  7.250651041666668 17.759765625  6.876953125 17.568359375  L 4.94921875 19.03125  C 4.858072916666667 19.11328125  4.744140625 19.154296875  4.607421875 19.154296875  C 4.479817708333334 19.154296875  4.365885416666667 19.104166666666668  4.265625 19.00390625  C 3.1171875 17.96484375  2.365234375 17.19921875  2.009765625 16.70703125  C 1.945963541666667 16.615885416666664  1.9140625 16.511067708333336  1.9140625 16.392578125  C 1.9140625 16.283203125  1.9505208333333337 16.178385416666664  2.0234375 16.078125  C 2.16015625 15.88671875  2.392578125 15.583658854166668  2.720703125 15.168945312500002  C 3.048828125 14.754231770833332  3.294921875 14.43294270833333  3.458984375 14.205078125000002  C 3.212890625 13.749348958333332  3.026041666666667 13.298177083333332  2.8984375 12.851562500000002  L 0.396484375 12.482421875000002  C 0.2779947916666667 12.464192708333334  0.18229166666666669 12.4072265625  0.109375 12.311523437499998  C 0.03645833333333333 12.215820312500002  0 12.108723958333332  0 11.990234375000002  L 0 8.955078125  C 0 8.845703125  0.03645833333333333 8.740885416666666  0.109375 8.640625  C 0.18229166666666669 8.540364583333334  0.26888020833333337 8.481119791666666  0.369140625 8.462890625  L 2.912109375 8.080078125  C 3.039713541666667 7.660807291666666  3.2174479166666665 7.241536458333333  3.4453125 6.822265624999999  C 3.080729166666667 6.302734375000001  2.5930989583333335 5.673828124999999  1.982421875 4.935546874999999  C 1.8912760416666667 4.826171875000001  1.845703125 4.716796875  1.845703125 4.607421874999999  C 1.845703125 4.516276041666666  1.88671875 4.41145833333333  1.96875 4.292968750000001  C 2.2057291666666665 3.964843750000001  2.6546223958333335 3.4749348958333313  3.3154296875 2.823242187499999  C 3.976236979166667 2.1715494791666647  4.406901041666667 1.845703125  4.607421875 1.845703125  C 4.725911458333334 1.845703125  4.844401041666667 1.8912760416666656  4.962890625 1.9824218749999991  L 6.849609375 3.4453125  C 7.250651041666668 3.235677083333332  7.665364583333334 3.062500000000001  8.09375 2.925781249999999  C 8.239583333333334 1.6861979166666656  8.371744791666666 0.8385416666666649  8.490234375 0.3828124999999992  C 8.554036458333334 0.12760416666666563  8.718098958333334 0  8.982421875 0  L 12.017578125 0  C 12.145182291666668 0  12.2568359375 0.03873697916666485  12.3525390625 0.11621093749999922  C 12.4482421875 0.19368489583333126  12.500651041666666 0.29166666666666563  12.509765625 0.41015625  L 12.892578125 2.925781249999999  C 13.339192708333334 3.071614583333332  13.749348958333334 3.240234375  14.123046875 3.431640625000001  L 16.064453125 1.96875  C 16.146484375 1.88671875  16.255859375 1.845703125  16.392578125 1.845703125  C 16.511067708333336 1.845703125  16.625 1.8912760416666656  16.734375 1.9824218749999991  C 17.91015625 3.0670572916666665  18.662109375 3.841796875000001  18.990234375 4.306640625  C 19.054036458333336 4.379557291666666  19.0859375 4.479817708333331  19.0859375 4.607421874999999  C 19.0859375 4.716796875  19.049479166666668 4.82161458333333  18.9765625 4.921875  C 18.83984375 5.113281250000001  18.607421875 5.41634114583333  18.279296875 5.831054687500001  C 17.951171875 6.245768229166666  17.705078125 6.567057291666666  17.541015625 6.794921875000001  C 17.777994791666668 7.250651041666666  17.96484375 7.697265624999998  18.1015625 8.134765625  L 20.603515625 8.517578125  C 20.722005208333332 8.535807291666666  20.817708333333336 8.592773437499998  20.890625 8.6884765625  Z " fill-rule="nonzero" fill="#000000" stroke="none" transform="matrix(1 0 0 1 917 129 )" />
  </g>
</svg>