<?xml version="1.0" encoding="utf-8"?>
<svg version="1.1" xmlns:xlink="http://www.w3.org/1999/xlink" width="21px" height="18px" xmlns="http://www.w3.org/2000/svg">
  <g transform="matrix(1 0 0 1 -917 -161 )">
    <path d="M 8.544642857142858 16.46015625  C 8.535714285714286 16.51171875  8.544642857142858 16.575000000000003  8.571428571428571 16.650000000000002  C 8.571428571428571 16.6875  8.575892857142858 16.78125  8.584821428571429 16.931250000000002  C 8.593750000000002 17.08125  8.595982142857144 17.205468749999998  8.591517857142858 17.30390625  C 8.587053571428573 17.40234375  8.573660714285715 17.5125  8.551339285714286 17.634375000000002  C 8.529017857142858 17.75625  8.484375 17.84765625  8.417410714285715 17.908593749999998  C 8.350446428571429 17.96953125  8.258928571428573 18  8.142857142857142 18  L 3.857142857142857 18  C 2.7946428571428577 18  1.8861607142857144 17.603906249999998  1.1316964285714286 16.81171875  C 0.37723214285714285 16.01953125  0 15.065624999999999  0 13.950000000000001  L 0 4.05  C 0 2.934374999999997  0.37723214285714285 1.9804687499999993  1.1316964285714286 1.1882812500000004  C 1.8861607142857144 0.39609374999999747  2.7946428571428577 0  3.857142857142857 0  L 8.142857142857142 0  C 8.258928571428573 0  8.359375 0.04453124999999747  8.444196428571429 0.1335937500000004  C 8.529017857142858 0.22265624999999933  8.571428571428571 0.32812499999999933  8.571428571428571 0.4500000000000004  C 8.571428571428571 0.48749999999999827  8.575892857142858 0.5812499999999989  8.584821428571429 0.7312500000000004  C 8.593750000000002 0.8812499999999979  8.595982142857144 1.0054687500000008  8.591517857142858 1.1039062499999992  C 8.587053571428573 1.2023437499999996  8.573660714285715 1.3124999999999993  8.551339285714286 1.4343750000000004  C 8.529017857142858 1.5562499999999975  8.484375 1.6476562499999983  8.417410714285715 1.7085937500000008  C 8.350446428571429 1.7695312499999993  8.258928571428573 1.7999999999999996  8.142857142857142 1.7999999999999996  L 3.857142857142857 1.7999999999999996  C 3.267857142857143 1.7999999999999996  2.7633928571428577 2.020312499999997  2.34375 2.4609375  C 1.924107142857143 2.901562499999999  1.7142857142857142 3.431250000000001  1.7142857142857142 4.05  L 1.7142857142857142 13.950000000000001  C 1.7142857142857142 14.56875  1.924107142857143 15.098437499999998  2.34375 15.5390625  C 2.7633928571428577 15.979687499999999  3.267857142857143 16.2  3.857142857142857 16.2  L 7.714285714285714 16.2  L 7.861607142857142 16.2  L 8.035714285714285 16.2  C 8.035714285714285 16.2  8.087053571428573 16.2046875  8.189732142857142 16.2140625  C 8.292410714285715 16.223437500000003  8.34375 16.2375  8.34375 16.256249999999998  C 8.34375 16.275  8.379464285714286 16.30078125  8.450892857142858 16.333593750000002  C 8.522321428571429 16.366406249999997  8.553571428571429 16.408593749999998  8.544642857142858 16.46015625  Z M 20.745535714285715 8.3671875  C 20.915178571428573 8.5453125  21 8.75625  21 9  C 21 9.243749999999999  20.915178571428573 9.454687499999999  20.745535714285715 9.6328125  L 13.459821428571429 17.282812500000002  C 13.290178571428571 17.4609375  13.089285714285715 17.55  12.857142857142858 17.55  C 12.625000000000002 17.55  12.424107142857144 17.4609375  12.254464285714285 17.282812500000002  C 12.084821428571429 17.104687499999997  12 16.893749999999997  12 16.650000000000002  L 12 12.6  L 6 12.6  C 5.767857142857143 12.6  5.566964285714286 12.5109375  5.397321428571429 12.332812500000001  C 5.227678571428571 12.154687499999998  5.142857142857142 11.943749999999998  5.142857142857142 11.700000000000001  L 5.142857142857142 6.3  C 5.142857142857142 6.056249999999998  5.227678571428571 5.845312499999998  5.397321428571429 5.6671875  C 5.566964285714286 5.489062499999999  5.767857142857143 5.4  6 5.4  L 12 5.4  L 12 1.3499999999999992  C 12 1.106249999999997  12.084821428571429 0.8953124999999971  12.254464285714285 0.7171874999999992  C 12.424107142857144 0.5390624999999993  12.625000000000002 0.4500000000000004  12.857142857142858 0.4500000000000004  C 13.089285714285715 0.4500000000000004  13.290178571428571 0.5390624999999993  13.459821428571429 0.7171874999999992  L 20.745535714285715 8.3671875  Z " fill-rule="nonzero" fill="#000000" stroke="none" transform="matrix(1 0 0 1 917 161 )" />
  </g>
</svg>