<?xml version="1.0" encoding="utf-8"?>
<svg version="1.1" xmlns:xlink="http://www.w3.org/1999/xlink" width="13px" height="12px" xmlns="http://www.w3.org/2000/svg">
  <g transform="matrix(1 0 0 1 -93 -262 )">
    <path d="M 9.690755208333334 7.30078125  C 9.71896701388889 7.32421875  9.733072916666666 7.354166666666665  9.733072916666666 7.390625000000001  L 9.733072916666666 8.2421875  C 9.733072916666666 8.502604166666664  9.63009982638889 8.734375  9.424153645833334 8.9375  C 9.218207465277779 9.140625  8.953016493055557 9.298177083333332  8.628580729166666 9.41015625  C 8.304144965277779 9.522135416666666  7.971245659722222 9.606770833333334  7.6298828125 9.6640625  C 7.288519965277779 9.721354166666666  6.95703125 9.75  6.635416666666666 9.75  C 5.478732638888889 9.75  4.512478298611112 9.388020833333334  3.736653645833333 8.6640625  C 2.960828993055556 7.940104166666665  2.5729166666666665 7.039062500000001  2.5729166666666665 5.9609375  C 2.5729166666666665 4.903645833333334  2.9565972222222223 4.020833333333333  3.723958333333333 3.3124999999999996  C 4.491319444444445 2.604166666666666  5.447699652777779 2.25  6.593098958333334 2.25  C 6.784939236111112 2.25  6.997938368055556 2.26171875  7.232096354166666 2.28515625  C 7.466254340277779 2.30859375  7.728624131944445 2.35546875  8.019205729166666 2.42578125  C 8.30978732638889 2.49609375  8.570746527777779 2.5846354166666665  8.802083333333334 2.6914062499999996  C 9.03342013888889 2.7981770833333326  9.228081597222223 2.9453125000000004  9.386067708333334 3.1328125000000004  C 9.544053819444445 3.3203125000000004  9.623046875 3.5312500000000004  9.623046875 3.7656250000000004  L 9.623046875 4.6171875  C 9.623046875 4.700520833333332  9.57790798611111 4.7421875  9.487630208333334 4.7421875  L 8.488932291666666 4.7421875  C 8.39865451388889 4.7421875  8.353515625000002 4.700520833333332  8.353515625 4.6171875  L 8.353515625 4.0703125  C 8.353515625000002 3.846354166666666  8.16872829861111 3.670572916666666  7.799153645833334 3.5429687500000004  C 7.429578993055556 3.415364583333332  7.041666666666666 3.3515625  6.635416666666666 3.3515625  C 5.845486111111112 3.3515625  5.200846354166667 3.5898437500000004  4.701497395833333 4.06640625  C 4.2021484375 4.54296875  3.952473958333333 5.161458333333334  3.952473958333333 5.921875  C 3.952473958333333 6.708333333333332  4.210611979166667 7.358072916666667  4.726888020833333 7.871093750000001  C 5.2431640625 8.384114583333332  5.901909722222222 8.640625  6.703125 8.640625  C 7.086805555555556 8.640625  7.476128472222222 8.578125  7.87109375 8.453125  C 8.266059027777779 8.328125  8.463541666666666 8.15625  8.463541666666666 7.937499999999999  L 8.463541666666666 7.390625000000001  C 8.463541666666666 7.354166666666665  8.476236979166666 7.32421875  8.501627604166666 7.30078125  C 8.527018229166666 7.27734375  8.556640625 7.265625  8.590494791666666 7.265625  L 9.59765625 7.265625  C 9.631510416666666 7.265625  9.662543402777779 7.27734375  9.690755208333334 7.30078125  Z M 8.603190104166666 1.3984375000000004  C 7.9345703125 1.1328124999999996  7.233506944444445 1.0000000000000004  6.5 1.0000000000000004  C 5.766493055555555 1.0000000000000004  5.0654296875 1.1328124999999996  4.396809895833333 1.3984375000000004  C 3.728190104166667 1.6640625  3.1526692708333335 2.0195312500000004  2.6702473958333335 2.4648437500000004  C 2.1878255208333335 2.9101562500000004  1.802734375 3.4414062499999996  1.5149739583333333 4.05859375  C 1.2272135416666667 4.67578125  1.0833333333333333 5.322916666666666  1.0833333333333333 6  C 1.0833333333333333 6.677083333333334  1.2272135416666667 7.32421875  1.5149739583333333 7.941406250000001  C 1.802734375 8.55859375  2.1878255208333335 9.08984375  2.6702473958333335 9.53515625  C 3.1526692708333335 9.98046875  3.728190104166667 10.3359375  4.396809895833333 10.6015625  C 5.0654296875 10.8671875  5.766493055555555 11  6.5 11  C 7.233506944444445 11  7.9345703125 10.8671875  8.603190104166666 10.6015625  C 9.271809895833334 10.3359375  9.847330729166666 9.98046875  10.329752604166666 9.53515625  C 10.812174479166666 9.08984375  11.197265625 8.55859375  11.485026041666666 7.941406250000001  C 11.772786458333334 7.32421875  11.916666666666666 6.677083333333334  11.916666666666666 6  C 11.916666666666666 5.322916666666666  11.772786458333334 4.67578125  11.485026041666666 4.05859375  C 11.197265625 3.4414062499999996  10.812174479166666 2.9101562500000004  10.329752604166666 2.4648437500000004  C 9.847330729166666 2.0195312500000004  9.271809895833334 1.6640625  8.603190104166666 1.3984375000000004  Z M 12.128255208333334 2.98828125  C 12.709418402777777 3.907552083333332  13 4.911458333333332  13 6  C 13 7.088541666666667  12.709418402777777 8.092447916666664  12.128255208333334 9.01171875  C 11.54709201388889 9.930989583333334  10.75857204861111 10.658854166666666  9.7626953125 11.1953125  C 8.76681857638889 11.731770833333334  7.679253472222222 12  6.5 12  C 5.320746527777779 12  4.233181423611112 11.731770833333334  3.2373046875 11.1953125  C 2.2414279513888893 10.658854166666666  1.4529079861111112 9.930989583333334  0.8717447916666667 9.01171875  C 0.2905815972222222 8.092447916666664  0 7.088541666666667  0 6  C 0 4.911458333333332  0.2905815972222222 3.907552083333332  0.8717447916666667 2.98828125  C 1.4529079861111112 2.0690104166666665  2.2414279513888893 1.3411458333333321  3.2373046875 0.8046874999999996  C 4.233181423611112 0.26822916666666563  5.320746527777779 0  6.5 0  C 7.679253472222222 0  8.76681857638889 0.26822916666666563  9.7626953125 0.8046874999999996  C 10.75857204861111 1.3411458333333321  11.54709201388889 2.0690104166666665  12.128255208333334 2.98828125  Z " fill-rule="nonzero" fill="#000000" stroke="none" transform="matrix(1 0 0 1 93 262 )" />
  </g>
</svg>