<?xml version="1.0" encoding="utf-8"?>
<svg version="1.1" xmlns:xlink="http://www.w3.org/1999/xlink" width="237px" height="262px" xmlns="http://www.w3.org/2000/svg">
  <defs>
    <filter x="-1px" y="-1px" width="237px" height="262px" filterUnits="userSpaceOnUse" id="filter14">
      <feOffset dx="4" dy="4" in="SourceAlpha" result="shadowOffsetInner" />
      <feGaussianBlur stdDeviation="2.5" in="shadowOffsetInner" result="shadowGaussian" />
      <feComposite in2="shadowGaussian" operator="atop" in="SourceAlpha" result="shadowComposite" />
      <feColorMatrix type="matrix" values="0 0 0 0 0  0 0 0 0 0  0 0 0 0 0  0 0 0 0.34901960784313724 0  " in="shadowComposite" />
    </filter>
    <g id="widget15">
      <path d="M 0.5 15.000000000000004  A 14.5 14.5 0 0 1 14.999999999999996 0.5 L 212 0.5  A 14.5 14.5 0 0 1 226.5 15 L 226.5 237  A 14.5 14.5 0 0 1 212 251.5 L 15 251.5  A 14.5 14.5 0 0 1 0.5 237 L 0.5 15  Z " fill-rule="nonzero" fill="#ffffff" stroke="none" fill-opacity="0.9921568627450981" />
      <path d="M 0.5 15.000000000000004  A 14.5 14.5 0 0 1 14.999999999999996 0.5 L 212 0.5  A 14.5 14.5 0 0 1 226.5 15 L 226.5 237  A 14.5 14.5 0 0 1 212 251.5 L 15 251.5  A 14.5 14.5 0 0 1 0.5 237 L 0.5 15  Z " stroke-width="1" stroke="#d9d9d9" fill="none" />
    </g>
  </defs>
  <g transform="matrix(1 0 0 1 1 1 )">
    <use xlink:href="#widget15" filter="url(#filter14)" />
    <use xlink:href="#widget15" />
  </g>
</svg>