<?xml version="1.0" encoding="utf-8"?>
<svg version="1.1" xmlns:xlink="http://www.w3.org/1999/xlink" width="18px" height="17px" xmlns="http://www.w3.org/2000/svg">
  <g transform="matrix(1 0 0 1 -692 -26 )">
    <path d="M 11.0390625 10.42578125  C 11.987379807692308 9.530148237179485  12.461538461538462 8.452323717948717  12.461538461538462 7.192307692307693  C 12.461538461538462 5.932291666666665  11.987379807692308 4.854467147435896  11.0390625 3.9588341346153846  C 10.090745192307693 3.0632011217948705  8.949519230769232 2.6153846153846154  7.615384615384615 2.6153846153846154  C 6.281250000000001 2.6153846153846154  5.140024038461539 3.0632011217948705  4.191706730769231 3.9588341346153846  C 3.2433894230769234 4.854467147435896  2.769230769230769 5.932291666666665  2.769230769230769 7.192307692307693  C 2.769230769230769 8.452323717948717  3.2433894230769234 9.530148237179485  4.191706730769231 10.42578125  C 5.140024038461539 11.321414262820511  6.281250000000001 11.769230769230768  7.615384615384615 11.769230769230768  C 8.949519230769232 11.769230769230768  10.090745192307693 11.321414262820511  11.0390625 10.42578125  Z M 17.599759615384617 14.772836538461538  C 17.86658653846154 15.024839743589745  18 15.33133012820513  18 15.692307692307693  C 18 16.04647435897436  17.86298076923077 16.352964743589745  17.588942307692307 16.611778846153847  C 17.314903846153847 16.87059294871795  16.990384615384617 17  16.615384615384617 17  C 16.22596153846154 17  15.901442307692308 16.87059294871795  15.641826923076923 16.611778846153847  L 11.931490384615383 13.117788461538462  C 10.640625 13.962339743589745  9.201923076923078 14.384615384615385  7.615384615384615 14.384615384615385  C 6.584134615384616 14.384615384615385  5.597956730769231 14.195612980769232  4.656850961538462 13.817608173076923  C 3.7157451923076925 13.439603365384615  2.9044471153846154 12.928786057692307  2.222956730769231 12.28515625  C 1.5414663461538463 11.641526442307693  1.0006009615384617 10.875300480769232  0.6003605769230769 9.986478365384615  C 0.20012019230769232 9.09765625  0 8.166266025641024  0 7.192307692307693  C 0 6.218349358974357  0.20012019230769232 5.286959134615384  0.6003605769230769 4.398137019230769  C 1.0006009615384617 3.5093149038461533  1.5414663461538463 2.7430889423076934  2.222956730769231 2.0994591346153846  C 2.9044471153846154 1.4558293269230775  3.7157451923076925 0.9450120192307689  4.656850961538462 0.5670072115384621  C 5.597956730769231 0.1890024038461534  6.584134615384616 0  7.615384615384615 0  C 8.646634615384615 0  9.6328125 0.1890024038461534  10.57391826923077 0.5670072115384621  C 11.515024038461538 0.9450120192307689  12.326322115384617 1.4558293269230775  13.0078125 2.0994591346153846  C 13.689302884615383 2.7430889423076934  14.23016826923077 3.5093149038461533  14.630408653846153 4.398137019230769  C 15.030649038461538 5.286959134615384  15.23076923076923 6.218349358974357  15.23076923076923 7.192307692307693  C 15.23076923076923 8.690705128205128  14.783653846153847 10.049479166666666  13.889423076923077 11.268629807692307  L 17.599759615384617 14.772836538461538  Z " fill-rule="nonzero" fill="#006400" stroke="none" transform="matrix(1 0 0 1 692 26 )" />
  </g>
</svg>