<?xml version="1.0" encoding="utf-8"?>
<svg version="1.1" xmlns:xlink="http://www.w3.org/1999/xlink" width="20px" height="19px" xmlns="http://www.w3.org/2000/svg">
  <g transform="matrix(1 0 0 1 -1182 -27 )">
    <path d="M 4.98046875 1.274088541666666  C 6.512586805555555 0.4246961805555539  8.18576388888889 0  10 0  C 11.81423611111111 0  13.487413194444446 0.4246961805555539  15.01953125 1.274088541666666  C 16.551649305555557 2.123480902777776  17.764756944444446 3.275933159722222  18.658854166666668 4.7314453125  C 19.552951388888886 6.186957465277776  20 7.776475694444442  20 9.5  C 20 11.223524305555555  19.552951388888886 12.81304253472222  18.658854166666668 14.2685546875  C 17.764756944444446 15.724066840277779  16.551649305555557 16.87651909722222  15.01953125 17.725911458333336  C 13.487413194444446 18.575303819444446  11.81423611111111 19  10 19  C 8.18576388888889 19  6.512586805555555 18.575303819444446  4.98046875 17.725911458333336  C 3.4483506944444446 16.87651909722222  2.235243055555556 15.724066840277779  1.3411458333333335 14.2685546875  C 0.44704861111111105 12.81304253472222  0 11.223524305555555  0 9.5  C 0 7.776475694444442  0.44704861111111105 6.186957465277776  1.3411458333333335 4.7314453125  C 2.235243055555556 3.275933159722222  3.4483506944444446 2.123480902777776  4.98046875 1.274088541666666  Z M 14.127604166666668 6.296223958333334  C 13.980034722222223 6.254991319444442  13.793402777777779 6.30447048611111  13.567708333333332 6.444661458333334  C 13.550347222222223 6.45290798611111  13.509114583333332 6.492078993055554  13.444010416666668 6.562174479166666  C 13.37890625 6.632269965277778  13.3203125 6.671440972222222  13.268229166666668 6.6796875  C 13.285590277777779 6.6796875  13.305121527777779 6.659071180555554  13.326822916666668 6.617838541666666  C 13.348524305555555 6.576605902777778  13.370225694444446 6.53125  13.391927083333332 6.481770833333334  C 13.413628472222223 6.432291666666666  13.428819444444446 6.403428819444444  13.4375 6.395182291666666  C 13.489583333333332 6.337456597222222  13.585069444444446 6.2756076388888875  13.723958333333332 6.209635416666666  C 13.845486111111114 6.16015625  14.071180555555555 6.110677083333334  14.401041666666668 6.061197916666666  C 14.696180555555555 5.995225694444442  14.917534722222223 6.040581597222222  15.065104166666668 6.197265625  C 15.047743055555555 6.180772569444442  15.088975694444446 6.1271701388888875  15.188802083333332 6.036458333333334  C 15.288628472222223 5.945746527777776  15.3515625 5.89626736111111  15.377604166666668 5.888020833333334  C 15.403645833333332 5.871527777777776  15.46875 5.852973090277776  15.572916666666668 5.832356770833334  C 15.677083333333332 5.8117404513888875  15.7421875 5.780815972222222  15.768229166666668 5.739583333333334  L 15.794270833333332 5.467447916666666  C 15.690104166666668 5.475694444444442  15.614149305555555 5.446831597222222  15.56640625 5.380859375  C 15.518663194444446 5.314887152777776  15.490451388888891 5.22829861111111  15.481770833333332 5.12109375  C 15.481770833333332 5.137586805555554  15.455729166666668 5.170572916666666  15.403645833333332 5.220052083333334  C 15.403645833333332 5.1623263888888875  15.384114583333332 5.129340277777776  15.345052083333332 5.12109375  C 15.305989583333332 5.112847222222222  15.256076388888891 5.11697048611111  15.1953125 5.133463541666666  C 15.134548611111114 5.149956597222222  15.095486111111114 5.15407986111111  15.078125 5.145833333333334  C 14.991319444444446 5.12109375  14.926215277777779 5.090169270833334  14.8828125 5.053059895833334  C 14.839409722222223 5.015950520833334  14.8046875 4.947916666666666  14.778645833333332 4.848958333333334  C 14.752604166666668 4.75  14.735243055555555 4.688151041666666  14.7265625 4.663411458333334  C 14.709201388888891 4.622178819444442  14.66796875 4.576822916666666  14.602864583333332 4.52734375  C 14.537760416666668 4.477864583333334  14.496527777777779 4.436631944444442  14.479166666666668 4.403645833333334  C 14.470486111111114 4.387152777777776  14.459635416666668 4.3644748263888875  14.446614583333332 4.335611979166666  C 14.43359375 4.306749131944442  14.420572916666668 4.279947916666666  14.407552083333332 4.255208333333334  C 14.39453125 4.23046875  14.377170138888891 4.20779079861111  14.35546875 4.187174479166666  C 14.333767361111114 4.166558159722222  14.309895833333332 4.15625  14.283854166666668 4.15625  C 14.2578125 4.15625  14.227430555555555 4.176866319444442  14.192708333333332 4.218098958333334  C 14.157986111111114 4.259331597222222  14.125434027777779 4.30056423611111  14.095052083333332 4.341796875  C 14.064670138888891 4.3830295138888875  14.045138888888891 4.403645833333334  14.036458333333332 4.403645833333334  C 14.010416666666668 4.387152777777776  13.984375 4.380967881944442  13.958333333333332 4.385091145833334  C 13.932291666666668 4.389214409722222  13.912760416666668 4.39333767361111  13.899739583333332 4.3974609375  C 13.88671875 4.4015842013888875  13.8671875 4.413953993055554  13.841145833333332 4.4345703125  C 13.815104166666668 4.455186631944442  13.793402777777779 4.469618055555554  13.776041666666668 4.477864583333334  C 13.75 4.4943576388888875  13.713107638888891 4.506727430555554  13.665364583333332 4.514973958333334  C 13.617621527777779 4.52322048611111  13.580729166666668 4.5314670138888875  13.5546875 4.539713541666666  C 13.684895833333332 4.498480902777776  13.680555555555555 4.453125  13.541666666666668 4.403645833333334  C 13.454861111111114 4.370659722222222  13.385416666666668 4.358289930555554  13.333333333333332 4.366536458333334  C 13.411458333333332 4.333550347222222  13.444010416666668 4.284071180555554  13.430989583333332 4.218098958333334  C 13.41796875 4.15212673611111  13.381076388888891 4.094401041666666  13.3203125 4.044921875  L 13.385416666666668 4.044921875  C 13.376736111111114 4.0119357638888875  13.33984375 3.976888020833334  13.274739583333332 3.939778645833334  C 13.209635416666668 3.902669270833334  13.133680555555555 3.867621527777776  13.046875 3.834635416666666  C 12.960069444444445 3.801649305555554  12.903645833333332 3.776909722222222  12.877604166666668 3.760416666666666  C 12.808159722222223 3.719184027777776  12.660590277777779 3.680013020833334  12.434895833333332 3.642903645833334  C 12.209201388888891 3.605794270833334  12.065972222222223 3.603732638888888  12.005208333333332 3.63671875  C 11.961805555555555 3.686197916666666  11.942274305555555 3.7294921875  11.946614583333332 3.7666015625  C 11.950954861111114 3.8037109375  11.968315972222223 3.861436631944442  11.998697916666668 3.939778645833334  C 12.02907986111111 4.018120659722222  12.044270833333332 4.069661458333334  12.044270833333332 4.094401041666666  C 12.052951388888891 4.143880208333334  12.02907986111111 4.1974826388888875  11.97265625 4.255208333333334  C 11.916232638888891 4.312934027777776  11.888020833333332 4.362413194444442  11.888020833333332 4.403645833333334  C 11.888020833333332 4.461371527777776  11.948784722222223 4.525282118055554  12.0703125 4.595377604166666  C 12.191840277777779 4.665473090277776  12.235243055555555 4.7541232638888875  12.200520833333332 4.861328125  C 12.174479166666668 4.927300347222222  12.105034722222223 4.993272569444442  11.9921875 5.059244791666666  C 11.879340277777779 5.1252170138888875  11.809895833333332 5.174696180555554  11.783854166666668 5.207682291666666  C 11.740451388888891 5.2736545138888875  11.733940972222223 5.349934895833334  11.764322916666668 5.4365234375  C 11.79470486111111 5.523111979166666  11.840277777777779 5.591145833333334  11.901041666666668 5.640625  C 11.918402777777779 5.657118055555554  11.924913194444445 5.67361111111111  11.920572916666668 5.690104166666666  C 11.916232638888891 5.706597222222222  11.901041666666668 5.725151909722222  11.875 5.745768229166666  C 11.848958333333336 5.76638454861111  11.825086805555555 5.782877604166666  11.803385416666668 5.795247395833334  C 11.781684027777779 5.8076171875  11.753472222222223 5.82204861111111  11.71875 5.838541666666666  L 11.6796875 5.86328125  C 11.584201388888891 5.9045138888888875  11.495225694444445 5.879774305555554  11.412760416666668 5.7890625  C 11.330295138888891 5.698350694444442  11.271701388888891 5.591145833333334  11.236979166666668 5.467447916666666  C 11.176215277777779 5.261284722222222  11.106770833333332 5.137586805555554  11.028645833333332 5.096354166666666  C 10.828993055555555 5.030381944444442  10.703125 5.034505208333334  10.651041666666668 5.108723958333334  C 10.607638888888891 5.001519097222222  10.429687500000002 4.89431423611111  10.1171875 4.787109375  C 9.90017361111111 4.712890625  9.6484375 4.696397569444442  9.361979166666666 4.737630208333334  C 9.4140625 4.729383680555554  9.4140625 4.667534722222222  9.361979166666666 4.552083333333334  C 9.301215277777779 4.428385416666666  9.21875 4.37890625  9.114583333333334 4.403645833333334  C 9.140625 4.354166666666666  9.15798611111111 4.28200954861111  9.166666666666666 4.187174479166666  C 9.175347222222223 4.092339409722222  9.1796875 4.036675347222222  9.1796875 4.020182291666666  C 9.205729166666666 3.912977430555554  9.2578125 3.81814236111111  9.3359375 3.735677083333334  C 9.344618055555557 3.727430555555554  9.375 3.6923828125  9.427083333333334 3.630533854166666  C 9.479166666666666 3.568684895833334  9.520399305555557 3.513020833333334  9.55078125 3.463541666666666  C 9.581163194444445 3.4140625  9.583333333333334 3.389322916666666  9.557291666666666 3.389322916666666  C 9.86111111111111 3.422309027777776  10.078125 3.376953125  10.208333333333332 3.253255208333334  C 10.251736111111114 3.212022569444442  10.301649305555555 3.141927083333334  10.358072916666668 3.04296875  C 10.414496527777779 2.944010416666666  10.460069444444445 2.873914930555554  10.494791666666668 2.832682291666666  C 10.572916666666668 2.783203125  10.633680555555555 2.76052517361111  10.677083333333332 2.7646484375  C 10.720486111111114 2.768771701388888  10.783420138888891 2.791449652777776  10.865885416666668 2.832682291666666  C 10.948350694444445 2.873914930555554  11.011284722222223 2.89453125  11.0546875 2.89453125  C 11.176215277777779 2.902777777777776  11.243489583333332 2.857421875  11.256510416666668 2.758463541666666  C 11.26953125 2.659505208333334  11.236979166666668 2.577039930555554  11.158854166666668 2.511067708333334  C 11.263020833333332 2.51931423611111  11.276041666666668 2.44921875  11.197916666666668 2.30078125  C 11.163194444444445 2.243055555555554  11.128472222222223 2.205946180555554  11.09375 2.189453125  C 10.989583333333336 2.156467013888888  10.872395833333336 2.177083333333334  10.7421875 2.251302083333334  C 10.672743055555555 2.284288194444442  10.68142361111111 2.317274305555554  10.768229166666668 2.350260416666666  C 10.75954861111111 2.342013888888888  10.718315972222223 2.385308159722222  10.64453125 2.480143229166666  C 10.570746527777779 2.57497829861111  10.499131944444445 2.647135416666666  10.4296875 2.696614583333334  C 10.360243055555555 2.74609375  10.29079861111111 2.725477430555554  10.221354166666668 2.634765625  C 10.21267361111111 2.626519097222222  10.188802083333332 2.570855034722222  10.149739583333332 2.4677734375  C 10.110677083333332 2.364691840277776  10.069444444444445 2.309027777777776  10.026041666666668 2.30078125  C 9.956597222222223 2.30078125  9.887152777777779 2.362630208333334  9.817708333333334 2.486328125  C 9.84375 2.420355902777776  9.796006944444445 2.358506944444442  9.674479166666666 2.30078125  C 9.55295138888889 2.243055555555554  9.448784722222223 2.210069444444442  9.361979166666666 2.201822916666666  C 9.526909722222223 2.102864583333334  9.4921875 1.991536458333334  9.2578125 1.867838541666666  C 9.19704861111111 1.834852430555554  9.108072916666666 1.8142361111111098  8.990885416666666 1.805989583333334  C 8.873697916666666 1.797743055555554  8.7890625 1.8142361111111098  8.736979166666666 1.85546875  C 8.69357638888889 1.913194444444442  8.66970486111111 1.960611979166666  8.665364583333334 1.997721354166666  C 8.661024305555557 2.034830729166666  8.682725694444445 2.067816840277776  8.73046875 2.0966796875  C 8.778211805555557 2.125542534722222  8.823784722222223 2.14822048611111  8.8671875 2.164713541666666  C 8.910590277777779 2.181206597222222  8.960503472222223 2.197699652777776  9.016927083333334 2.214192708333334  C 9.073350694444445 2.230685763888888  9.110243055555557 2.243055555555554  9.127604166666666 2.251302083333334  C 9.249131944444445 2.33376736111111  9.283854166666666 2.391493055555554  9.231770833333334 2.424479166666666  C 9.214409722222223 2.432725694444442  9.17751736111111 2.447157118055554  9.12109375 2.4677734375  C 9.06467013888889 2.488389756944442  9.014756944444445 2.506944444444442  8.971354166666666 2.5234375  C 8.92795138888889 2.539930555555554  8.901909722222223 2.55642361111111  8.893229166666666 2.572916666666666  C 8.8671875 2.605902777777776  8.8671875 2.663628472222222  8.893229166666666 2.74609375  C 8.919270833333334 2.828559027777776  8.910590277777779 2.886284722222222  8.8671875 2.919270833333334  C 8.823784722222223 2.878038194444442  8.784722222222223 2.805881076388888  8.75 2.702799479166666  C 8.715277777777779 2.599717881944442  8.684895833333334 2.531684027777776  8.658854166666666 2.498697916666666  C 8.719618055555557 2.572916666666666  8.61111111111111 2.59765625  8.333333333333334 2.572916666666666  L 8.203125 2.560546875  C 8.168402777777779 2.560546875  8.098958333333334 2.568793402777776  7.994791666666666 2.585286458333334  C 7.890625 2.601779513888888  7.801649305555557 2.605902777777776  7.727864583333334 2.59765625  C 7.654079861111112 2.589409722222222  7.595486111111112 2.55642361111111  7.552083333333334 2.498697916666666  C 7.517361111111112 2.432725694444442  7.517361111111112 2.350260416666666  7.552083333333334 2.251302083333334  C 7.560763888888889 2.218315972222222  7.578125 2.210069444444442  7.604166666666666 2.2265625  C 7.5694444444444455 2.201822916666666  7.521701388888889 2.162651909722222  7.4609375 2.109049479166666  C 7.400173611111112 2.05544704861111  7.356770833333334 2.020399305555554  7.330729166666666 2.00390625  C 6.931423611111112 2.127604166666666  6.5234375 2.29665798611111  6.106770833333334 2.511067708333334  C 6.158854166666666 2.51931423611111  6.2109375 2.515190972222222  6.263020833333334 2.498697916666666  C 6.306423611111112 2.48220486111111  6.362847222222223 2.455403645833334  6.432291666666666 2.418294270833334  C 6.501736111111112 2.381184895833334  6.545138888888889 2.358506944444442  6.5625 2.350260416666666  C 6.857638888888889 2.234809027777776  7.039930555555557 2.205946180555554  7.109375 2.263671875  L 7.174479166666666 2.201822916666666  C 7.2960069444444455 2.33376736111111  7.3828125 2.436848958333334  7.434895833333334 2.511067708333334  C 7.3741319444444455 2.478081597222222  7.243923611111112 2.473958333333334  7.044270833333334 2.498697916666666  C 6.870659722222223 2.548177083333334  6.775173611111112 2.59765625  6.7578125 2.647135416666666  C 6.818576388888889 2.74609375  6.840277777777778 2.8203125  6.822916666666666 2.869791666666666  C 6.7881944444444455 2.845052083333334  6.73828125 2.803819444444442  6.673177083333334 2.74609375  C 6.608072916666666 2.688368055555554  6.545138888888889 2.643012152777776  6.484375 2.610026041666666  C 6.423611111111112 2.577039930555554  6.3585069444444455 2.55642361111111  6.2890625 2.548177083333334  C 6.150173611111112 2.548177083333334  6.0546875 2.552300347222222  6.002604166666666 2.560546875  C 4.735243055555555 3.220269097222222  3.7152777777777786 4.135633680555554  2.942708333333333 5.306640625  C 3.0034722222222228 5.364366319444442  3.055555555555556 5.397352430555554  3.098958333333333 5.405598958333334  C 3.133680555555556 5.41384548611111  3.1553819444444446 5.45095486111111  3.1640625 5.516927083333334  C 3.172743055555556 5.582899305555554  3.18359375 5.628255208333334  3.196614583333333 5.652994791666666  C 3.209635416666667 5.677734375  3.259548611111111 5.665364583333334  3.346354166666667 5.615885416666666  C 3.424479166666667 5.6818576388888875  3.4375 5.760199652777776  3.385416666666667 5.850911458333334  C 3.3940972222222228 5.842664930555554  3.5850694444444446 5.953993055555554  3.958333333333333 6.184895833333334  C 4.123263888888889 6.325086805555554  4.214409722222222 6.411675347222222  4.231770833333333 6.444661458333334  C 4.2578125 6.5353732638888875  4.214409722222222 6.6095920138888875  4.1015625 6.667317708333334  C 4.092881944444445 6.650824652777778  4.053819444444445 6.613715277777778  3.984375 6.555989583333334  C 3.914930555555556 6.4982638888888875  3.875868055555556 6.481770833333332  3.8671875 6.506510416666666  C 3.841145833333333 6.547743055555554  3.8433159722222228 6.6240234375  3.873697916666667 6.7353515625  C 3.9040798611111116 6.8466796875  3.9496527777777786 6.89822048611111  4.010416666666667 6.889973958333334  C 3.9496527777777786 6.889973958333334  3.908420138888889 6.955946180555554  3.88671875 7.087890625  C 3.8650173611111116 7.219835069444442  3.854166666666667 7.366210937499998  3.854166666666667 7.527018229166666  C 3.854166666666667 7.687825520833332  3.849826388888889 7.784722222222222  3.841145833333333 7.817708333333334  L 3.8671875 7.830078125  C 3.841145833333333 7.929036458333334  3.8650173611111116 8.0712890625  3.938802083333333 8.2568359375  C 4.012586805555555 8.4423828125  4.105902777777779 8.522786458333334  4.21875 8.498046875  C 4.105902777777779 8.522786458333334  4.192708333333333 8.700086805555554  4.479166666666667 9.029947916666666  C 4.53125 9.095920138888888  4.565972222222222 9.133029513888888  4.583333333333333 9.141276041666666  C 4.609375 9.157769097222221  4.661458333333333 9.188693576388888  4.739583333333333 9.234049479166666  C 4.817708333333333 9.279405381944445  4.8828125 9.320638020833334  4.934895833333333 9.357747395833334  C 4.986979166666667 9.394856770833334  5.0303819444444455 9.438151041666666  5.065104166666666 9.487630208333334  C 5.099826388888889 9.52886284722222  5.143229166666668 9.62163628472222  5.1953125 9.765950520833332  C 5.247395833333334 9.910264756944445  5.308159722222223 10.007161458333332  5.377604166666666 10.056640625  C 5.360243055555557 10.106119791666668  5.4014756944444455 10.188585069444445  5.501302083333334 10.304036458333332  C 5.601128472222222 10.41948784722222  5.646701388888889 10.514322916666668  5.638020833333334 10.588541666666668  C 5.629340277777778 10.588541666666668  5.618489583333334 10.592664930555555  5.60546875 10.600911458333332  C 5.592447916666668 10.609157986111112  5.581597222222223 10.61328125  5.572916666666666 10.61328125  C 5.598958333333334 10.671006944444445  5.666232638888889 10.728732638888888  5.774739583333334 10.786458333333332  C 5.883246527777778 10.844184027777775  5.950520833333334 10.897786458333332  5.9765625 10.947265625  C 5.985243055555555 10.972005208333332  5.993923611111112 11.01323784722222  6.002604166666666 11.070963541666668  C 6.011284722222223 11.128689236111112  6.024305555555557 11.174045138888888  6.041666666666666 11.20703125  C 6.059027777777778 11.240017361111112  6.09375 11.248263888888888  6.145833333333334 11.231770833333332  C 6.1631944444444455 11.066840277777775  6.059027777777778 10.811197916666668  5.833333333333334 10.46484375  C 5.703125 10.258680555555555  5.629340277777778 10.139105902777775  5.611979166666666 10.106119791666668  C 5.5859375 10.064887152777775  5.562065972222222 10.0009765625  5.540364583333334 9.914388020833332  C 5.5186631944444455 9.827799479166668  5.4991319444444455 9.768012152777775  5.481770833333334 9.735026041666668  C 5.4991319444444455 9.735026041666668  5.525173611111112 9.7412109375  5.559895833333334 9.753580729166668  C 5.594618055555555 9.765950520833332  5.631510416666666 9.780381944444445  5.670572916666666 9.796875  C 5.709635416666666 9.813368055555555  5.7421875 9.829861111111112  5.768229166666666 9.846354166666668  C 5.794270833333334 9.86284722222222  5.802951388888889 9.875217013888888  5.794270833333334 9.883463541666668  C 5.768229166666666 9.941189236111112  5.776909722222222 10.013346354166668  5.8203125 10.099934895833332  C 5.863715277777778 10.1865234375  5.915798611111112 10.262803819444445  5.9765625 10.328776041666668  C 6.037326388888889 10.394748263888888  6.111111111111112 10.473090277777775  6.197916666666666 10.563802083333332  C 6.284722222222223 10.654513888888888  6.336805555555557 10.708116319444445  6.354166666666666 10.724609375  C 6.40625 10.774088541666668  6.467013888888889 10.8544921875  6.536458333333334 10.9658203125  C 6.605902777777778 11.0771484375  6.605902777777778 11.1328125  6.536458333333334 11.1328125  C 6.614583333333334 11.1328125  6.701388888888889 11.176106770833332  6.796875 11.2626953125  C 6.892361111111112 11.349283854166668  6.966145833333334 11.4296875  7.018229166666666 11.50390625  C 7.0616319444444455 11.56987847222222  7.096354166666666 11.677083333333332  7.122395833333334 11.825520833333332  C 7.1484375 11.973958333333332  7.170138888888889 12.072916666666668  7.1875 12.122395833333332  C 7.204861111111112 12.180121527777775  7.241753472222223 12.235785590277775  7.298177083333334 12.289388020833332  C 7.3546006944444455 12.342990451388888  7.408854166666666 12.382161458333332  7.4609375 12.406901041666668  L 7.669270833333334 12.505859375  C 7.669270833333334 12.505859375  7.7256944444444455 12.53472222222222  7.838541666666666 12.592447916666668  C 7.8819444444444455 12.60894097222222  7.962239583333334 12.652235243055555  8.079427083333334 12.722330729166668  C 8.196614583333334 12.792426215277775  8.289930555555557 12.83984375  8.359375 12.864583333333332  C 8.446180555555557 12.897569444444445  8.515625 12.9140625  8.567708333333334 12.9140625  C 8.619791666666666 12.9140625  8.682725694444445 12.903754340277775  8.756510416666666 12.883138020833332  C 8.83029513888889 12.862521701388888  8.88888888888889 12.848090277777775  8.932291666666666 12.83984375  C 9.0625 12.823350694444445  9.188368055555557 12.885199652777775  9.309895833333334 13.025390625  C 9.43142361111111 13.16558159722222  9.522569444444445 13.252170138888888  9.583333333333334 13.28515625  C 9.895833333333334 13.441840277777775  10.13454861111111 13.487196180555555  10.299479166666668 13.421223958333332  C 10.282118055555555 13.429470486111107  10.284288194444446 13.460394965277775  10.305989583333332 13.513997395833332  C 10.327690972222223 13.567599826388888  10.362413194444445 13.631510416666668  10.41015625 13.705729166666668  C 10.457899305555555 13.779947916666668  10.496961805555555 13.839735243055555  10.52734375 13.885091145833332  C 10.557725694444445 13.930447048611107  10.581597222222223 13.965494791666668  10.598958333333332 13.990234375  C 10.642361111111114 14.039713541666668  10.720486111111114 14.1015625  10.833333333333332 14.17578125  C 10.946180555555555 14.25  11.024305555555555 14.311848958333334  11.067708333333332 14.361328125  C 11.119791666666668 14.328342013888888  11.15017361111111 14.291232638888888  11.158854166666668 14.25  C 11.1328125 14.315972222222221  11.163194444444445 14.3984375  11.25 14.497395833333334  C 11.336805555555555 14.596354166666666  11.414930555555555 14.637586805555554  11.484375 14.62109375  C 11.605902777777779 14.596354166666666  11.666666666666668 14.464409722222221  11.666666666666668 14.225260416666668  C 11.397569444444445 14.348958333333334  11.184895833333332 14.274739583333334  11.028645833333332 14.002604166666668  C 11.028645833333332 13.994357638888888  11.017795138888891 13.9716796875  10.99609375 13.9345703125  C 10.97439236111111 13.8974609375  10.95703125 13.862413194444445  10.944010416666668 13.829427083333332  C 10.930989583333332 13.79644097222222  10.920138888888891 13.761393229166668  10.911458333333332 13.724283854166668  C 10.902777777777779 13.687174479166668  10.902777777777779 13.65625  10.911458333333332 13.631510416666668  C 10.920138888888891 13.606770833333332  10.941840277777779 13.594401041666668  10.9765625 13.594401041666668  C 11.054687500000002 13.594401041666668  11.098090277777779 13.579969618055555  11.106770833333332 13.551106770833332  C 11.115451388888891 13.522243923611107  11.106770833333332 13.470703125  11.080729166666668 13.396484375  C 11.0546875 13.322265625  11.037326388888891 13.268663194444445  11.028645833333332 13.235677083333332  C 11.019965277777779 13.169704861111107  10.972222222222223 13.087239583333332  10.885416666666668 12.98828125  C 10.79861111111111 12.889322916666668  10.746527777777779 12.827473958333332  10.729166666666668 12.802734375  C 10.685763888888891 12.876953125  10.616319444444446 12.909939236111107  10.520833333333332 12.901692708333332  C 10.425347222222223 12.893446180555555  10.355902777777779 12.856336805555555  10.3125 12.790364583333332  C 10.312500000000002 12.798611111111107  10.305989583333336 12.8212890625  10.29296875 12.8583984375  C 10.279947916666668 12.8955078125  10.273437500000002 12.922309027777775  10.2734375 12.938802083333332  C 10.160590277777779 12.938802083333332  10.09548611111111 12.934678819444445  10.078125 12.926432291666668  C 10.086805555555555 12.901692708333332  10.09765625 12.829535590277775  10.110677083333332 12.7099609375  C 10.123697916666668 12.59038628472222  10.138888888888891 12.49761284722222  10.15625 12.431640625  C 10.164930555555555 12.398654513888888  10.188802083333332 12.34917534722222  10.227864583333332 12.283203125  C 10.266927083333332 12.217230902777775  10.299479166666668 12.157443576388888  10.325520833333332 12.103841145833332  C 10.3515625 12.050238715277775  10.36892361111111 11.998697916666668  10.377604166666668 11.94921875  C 10.386284722222223 11.899739583333332  10.366753472222223 11.860568576388888  10.319010416666668 11.831705729166668  C 10.27126736111111 11.802842881944445  10.1953125 11.79253472222222  10.091145833333332 11.80078125  C 9.926215277777779 11.809027777777775  9.813368055555557 11.891493055555555  9.752604166666666 12.048177083333332  C 9.74392361111111 12.072916666666668  9.730902777777779 12.1162109375  9.713541666666666 12.178059895833332  C 9.696180555555557 12.239908854166668  9.674479166666666 12.287326388888888  9.6484375 12.3203125  C 9.622395833333334 12.353298611111107  9.583333333333334 12.382161458333332  9.53125 12.406901041666668  C 9.47048611111111 12.431640625  9.366319444444445 12.439887152777775  9.21875 12.431640625  C 9.071180555555557 12.42339409722222  8.96701388888889 12.402777777777775  8.90625 12.369791666666668  C 8.793402777777779 12.303819444444445  8.695746527777779 12.184244791666668  8.61328125 12.011067708333332  C 8.530815972222223 11.837890625  8.489583333333334 11.685329861111107  8.489583333333334 11.553385416666668  C 8.489583333333334 11.470920138888888  8.500434027777779 11.361653645833332  8.522135416666666 11.2255859375  C 8.543836805555557 11.089518229166668  8.55685763888889 10.986436631944445  8.561197916666666 10.916341145833332  C 8.565538194444445 10.84624565972222  8.541666666666666 10.745225694444445  8.489583333333334 10.61328125  C 8.515625 10.596788194444445  8.5546875 10.5576171875  8.606770833333334 10.495768229166668  C 8.658854166666666 10.433919270833332  8.702256944444445 10.390625  8.736979166666666 10.365885416666668  C 8.754340277777779 10.357638888888888  8.773871527777779 10.351453993055555  8.795572916666666 10.347330729166668  C 8.817274305555557 10.343207465277775  8.836805555555557 10.343207465277775  8.854166666666666 10.347330729166668  C 8.871527777777779 10.351453993055555  8.88888888888889 10.34526909722222  8.90625 10.328776041666668  C 8.92361111111111 10.312282986111112  8.936631944444445 10.287543402777775  8.9453125 10.254557291666668  C 8.936631944444445 10.246310763888888  8.919270833333334 10.23394097222222  8.893229166666666 10.217447916666668  C 8.8671875 10.192708333333332  8.84982638888889 10.180338541666668  8.841145833333334 10.180338541666668  C 8.901909722222223 10.205078125  9.02560763888889 10.198893229166668  9.212239583333334 10.161783854166668  C 9.398871527777779 10.124674479166668  9.518229166666666 10.130859375  9.5703125 10.180338541666668  C 9.700520833333334 10.27105034722222  9.796006944444445 10.262803819444445  9.856770833333334 10.155598958333332  C 9.856770833333334 10.147352430555555  9.84592013888889 10.108181423611112  9.82421875 10.0380859375  C 9.80251736111111 9.967990451388888  9.800347222222223 9.912326388888888  9.817708333333334 9.87109375  C 9.86111111111111 10.09375  9.986979166666666 10.130859375  10.1953125 9.982421875  C 10.221354166666668 10.007161458333332  10.288628472222223 10.027777777777775  10.397135416666668 10.044270833333332  C 10.50564236111111 10.060763888888888  10.581597222222223 10.081380208333332  10.625 10.106119791666668  C 10.651041666666668 10.12261284722222  10.681423611111114 10.145290798611112  10.716145833333332 10.174153645833332  C 10.750868055555555 10.203016493055555  10.774739583333332 10.221571180555555  10.787760416666668 10.229817708333332  C 10.80078125 10.238064236111112  10.822482638888891 10.236002604166668  10.852864583333332 10.2236328125  C 10.883246527777779 10.211263020833332  10.920138888888891 10.184461805555555  10.963541666666668 10.143229166666668  C 11.050347222222223 10.258680555555555  11.102430555555555 10.357638888888888  11.119791666666668 10.440104166666668  C 11.215277777777779 10.769965277777775  11.297743055555555 10.951388888888888  11.3671875 10.984375  C 11.427951388888891 11.009114583333332  11.475694444444445 11.017361111111112  11.510416666666668 11.009114583333332  C 11.545138888888891 11.000868055555555  11.564670138888891 10.961697048611112  11.569010416666668 10.8916015625  C 11.573350694444445 10.821506076388888  11.573350694444445 10.763780381944445  11.569010416666668 10.718424479166668  C 11.564670138888891 10.673068576388888  11.558159722222223 10.621527777777775  11.549479166666668 10.563802083333332  L 11.536458333333332 10.46484375  L 11.536458333333332 10.2421875  L 11.5234375 10.143229166666668  C 11.393229166666668 10.118489583333332  11.312934027777779 10.069010416666668  11.282552083333332 9.994791666666668  C 11.252170138888891 9.920572916666668  11.258680555555555 9.84429253472222  11.302083333333332 9.765950520833332  C 11.345486111111114 9.687608506944445  11.410590277777779 9.611328125  11.497395833333332 9.537109375  C 11.506076388888891 9.52886284722222  11.54079861111111 9.514431423611112  11.6015625 9.493815104166666  C 11.662326388888891 9.473198784722221  11.729600694444445 9.446397569444445  11.803385416666668 9.413411458333334  C 11.877170138888891 9.380425347222221  11.931423611111114 9.34743923611111  11.966145833333332 9.314453125  C 12.1484375 9.157769097222221  12.213541666666668 9.01345486111111  12.161458333333332 8.881510416666666  C 12.222222222222223 8.881510416666666  12.269965277777779 8.844401041666666  12.3046875 8.770182291666666  C 12.296006944444445 8.770182291666666  12.274305555555555 8.7578125  12.239583333333332 8.733072916666666  C 12.204861111111114 8.708333333333334  12.172309027777779 8.687717013888888  12.141927083333332 8.671223958333334  C 12.111545138888891 8.654730902777779  12.092013888888891 8.646484375  12.083333333333332 8.646484375  C 12.161458333333332 8.60525173611111  12.170138888888891 8.539279513888888  12.109375 8.448567708333334  C 12.152777777777779 8.423828125  12.18532986111111 8.378472222222221  12.20703125 8.3125  C 12.228732638888891 8.246527777777779  12.261284722222223 8.205295138888888  12.3046875 8.188802083333334  C 12.382812500000002 8.287760416666666  12.473958333333336 8.296006944444445  12.578125 8.213541666666666  C 12.647569444444445 8.147569444444445  12.651909722222223 8.081597222222221  12.591145833333332 8.015625  C 12.634548611111114 7.957899305555554  12.723524305555555 7.914605034722222  12.858072916666668 7.8857421875  C 12.992621527777779 7.856879340277776  13.072916666666668 7.817708333333332  13.098958333333332 7.768229166666666  C 13.159722222222223 7.784722222222222  13.194444444444445 7.776475694444444  13.203125 7.743489583333334  C 13.211805555555555 7.710503472222222  13.216145833333332 7.661024305555554  13.216145833333332 7.595052083333334  C 13.216145833333332 7.52907986111111  13.229166666666668 7.479600694444444  13.255208333333332 7.446614583333334  C 13.289930555555555 7.405381944444444  13.355034722222223 7.368272569444444  13.450520833333332 7.335286458333334  C 13.546006944444446 7.302300347222222  13.602430555555555 7.281684027777776  13.619791666666668 7.2734375  L 13.841145833333332 7.137369791666666  C 13.8671875 7.104383680555554  13.8671875 7.087890625  13.841145833333332 7.087890625  C 13.997395833333332 7.104383680555554  14.131944444444446 7.059027777777778  14.244791666666668 6.951822916666666  C 14.331597222222223 6.86111111111111  14.305555555555555 6.778645833333334  14.166666666666668 6.704427083333334  C 14.192708333333332 6.654947916666666  14.1796875 6.615776909722222  14.127604166666668 6.5869140625  C 14.075520833333332 6.558051215277776  14.010416666666668 6.5353732638888875  13.932291666666668 6.518880208333334  C 13.958333333333332 6.510633680555554  14.008246527777779 6.50857204861111  14.08203125 6.5126953125  C 14.155815972222223 6.5168185763888875  14.201388888888891 6.510633680555554  14.21875 6.494140625  C 14.348958333333332 6.411675347222222  14.318576388888891 6.345703125  14.127604166666668 6.296223958333334  Z M 11.419270833333332 17.095052083333336  C 11.419270833333332 17.14453125  11.427951388888891 17.21050347222222  11.4453125 17.29296875  C 13.233506944444445 16.99609375  14.756944444444446 16.216796875  16.015625 14.955078125  C 15.989583333333332 14.930338541666666  15.935329861111114 14.911783854166666  15.852864583333332 14.8994140625  C 15.770399305555555 14.887044270833334  15.716145833333332 14.872612847222221  15.690104166666668 14.856119791666666  C 15.533854166666668 14.798394097222221  15.4296875 14.765407986111112  15.377604166666668 14.757161458333334  C 15.386284722222223 14.699435763888888  15.375434027777779 14.645833333333334  15.345052083333332 14.596354166666666  C 15.314670138888891 14.546875  15.279947916666668 14.509765625  15.240885416666668 14.485026041666666  C 15.201822916666668 14.460286458333334  15.147569444444446 14.427300347222221  15.078125 14.386067708333334  C 15.008680555555555 14.344835069444446  14.9609375 14.315972222222221  14.934895833333332 14.299479166666666  C 14.917534722222223 14.282986111111112  14.887152777777779 14.258246527777779  14.84375 14.225260416666668  C 14.800347222222223 14.192274305555555  14.769965277777779 14.169596354166668  14.752604166666668 14.1572265625  C 14.735243055555555 14.144856770833332  14.702690972222223 14.126302083333332  14.654947916666668 14.1015625  C 14.607204861111114 14.076822916666668  14.5703125 14.068576388888888  14.544270833333332 14.076822916666668  C 14.518229166666668 14.085069444444445  14.474826388888891 14.089192708333332  14.4140625 14.089192708333332  L 14.375 14.1015625  C 14.348958333333332 14.109809027777775  14.325086805555555 14.1201171875  14.303385416666668 14.132486979166668  C 14.281684027777779 14.144856770833332  14.2578125 14.1572265625  14.231770833333332 14.169596354166668  C 14.205729166666668 14.181966145833332  14.188368055555555 14.1943359375  14.1796875 14.206705729166668  C 14.171006944444446 14.219075520833332  14.171006944444446 14.229383680555555  14.1796875 14.237630208333332  C 13.997395833333332 14.097439236111107  13.841145833333332 14.006727430555555  13.7109375 13.965494791666668  C 13.667534722222223 13.957248263888888  13.619791666666668 13.9345703125  13.567708333333332 13.8974609375  C 13.515625 13.8603515625  13.470052083333332 13.831488715277775  13.430989583333332 13.810872395833332  C 13.391927083333332 13.790256076388888  13.348524305555555 13.784071180555555  13.30078125 13.792317708333332  C 13.253038194444445 13.800564236111107  13.203125 13.829427083333332  13.151041666666668 13.87890625  C 13.107638888888891 13.920138888888888  13.081597222222223 13.98198784722222  13.072916666666668 14.064453125  C 13.06423611111111 14.146918402777775  13.055555555555555 14.200520833333332  13.046875 14.225260416666668  C 12.98611111111111 14.184027777777775  12.98611111111111 14.11187065972222  13.046875 14.0087890625  C 13.107638888888891 13.905707465277775  13.116319444444445 13.829427083333332  13.072916666666668 13.779947916666668  C 13.046875 13.73046875  13.001302083333332 13.7119140625  12.936197916666668 13.724283854166668  C 12.87109375 13.736653645833332  12.819010416666668 13.755208333333332  12.779947916666668 13.779947916666668  C 12.740885416666668 13.8046875  12.690972222222223 13.839735243055555  12.630208333333332 13.885091145833332  C 12.569444444444446 13.930447048611107  12.530381944444446 13.957248263888888  12.513020833333332 13.965494791666668  C 12.495659722222223 13.973741319444445  12.45876736111111 13.996419270833332  12.40234375 14.033528645833332  C 12.345920138888891 14.070638020833332  12.309027777777779 14.1015625  12.291666666666668 14.126302083333332  C 12.265625 14.159288194444445  12.239583333333332 14.208767361111107  12.213541666666668 14.274739583333334  C 12.1875 14.340711805555554  12.16579861111111 14.386067708333334  12.1484375 14.410807291666666  C 12.131076388888891 14.377821180555554  12.081163194444445 14.351019965277779  11.998697916666668 14.330403645833334  C 11.916232638888891 14.309787326388888  11.875000000000002 14.287109375  11.875 14.262369791666666  C 11.89236111111111 14.344835069444446  11.909722222222223 14.489149305555554  11.927083333333332 14.6953125  C 11.944444444444446 14.901475694444441  11.966145833333336 15.058159722222221  11.9921875 15.165364583333334  C 12.052951388888891 15.421006944444446  12.000868055555555 15.618923611111112  11.8359375 15.759114583333334  C 11.601562500000002 15.965277777777779  11.475694444444446 16.130208333333336  11.458333333333332 16.25390625  C 11.423611111111114 16.43532986111111  11.475694444444446 16.54253472222222  11.614583333333332 16.575520833333336  C 11.614583333333332 16.63324652777778  11.57986111111111 16.7177734375  11.510416666666668 16.8291015625  C 11.440972222222223 16.9404296875  11.410590277777779 17.02907986111111  11.419270833333332 17.095052083333336  Z " fill-rule="nonzero" fill="#000000" stroke="none" transform="matrix(1 0 0 1 1182 27 )" />
  </g>
</svg>